<svg xmlns="http://www.w3.org/2000/svg" width="561.253" height="560.967" viewBox="0 0 561.253 560.967">
  <g id="Group_131" data-name="Group 131" transform="translate(-379.747 -4360.399)">
    <g id="Background" transform="translate(379.747 4360.399)">
      <path id="Weird_Shape" data-name="Weird Shape" d="M5.867,57.364c39.709-89.745,292.18-73.32,369.863,43.184s-11.1,375.331-90.681,375.331-79.583-174.751-112.4-226.072S-33.843,147.109,5.867,57.364Z" transform="translate(133.143 0)" fill="#4d2f1f"/>
      <path id="Weird_Shape-2" data-name="Weird Shape" d="M84.391,263.25c46.585,10.673,48.476-39.934,48.453-107.133s9.287-144.28-37.3-154.953S-.023,55.05,0,122.249,37.806,252.576,84.391,263.25Z" transform="translate(199.753 75.444) rotate(49)" fill="rgba(43,68,255,0.6)"/>
      <path id="Weird_Shape-3" data-name="Weird Shape" d="M44,139.7c32.076,0,67.463-30.713,67.463-69.849S76.081,0,44,0,0,44.788,0,76.887,11.928,139.7,44,139.7Z" transform="translate(449.786 301.5)" fill="rgba(255,115,198,0.7)"/>
    </g>
    <g id="A_Human_Sitting" data-name="A Human/Sitting" transform="translate(447.511 4508.207)">
      <g id="Head_Front" data-name="Head/Front" transform="translate(152.637)">
        <g id="Head" transform="translate(5.004 8.73)">
          <path id="Head-2" data-name="Head" d="M0,91.687,10.337,43.319C4.573,36.526.67,28.2,1.322,18.872c1.879-26.879,39.15-20.965,46.4-7.4s6.389,47.977-2.981,50.4c-3.737.967-11.7-1.4-19.8-6.3l5.086,36.117Z" transform="translate(0 0)" fill="#b28b67"/>
        </g>
        <path id="Hair" d="M13.034,58.149C9.266,41.318-1.471,29.844.169,22.321A12.776,12.776,0,0,1,8.91,12.964S12.582-1.951,32.6.277,64.832,10.849,59.557,29.212c-4.85,0-10.7-1.761-18.8,1.256-3.853,1.436-5.512,8.905-5.512,8.905H31.586s-5.326-8.864-10.5-6.515-2.354,11.414-2.354,11.414l-1.8,13.877Z" transform="translate(0 -0.05)" fill="#333"/>
      </g>
      <g id="Bottom_Skinny_Jeans_1" data-name="Bottom/Skinny Jeans 1" transform="translate(0 204.665)">
        <g id="Seat" transform="translate(0 52.752)">
          <g id="Seat-2" data-name="Seat" transform="translate(68.812)">
            <path id="Seat_Stuff" data-name="Seat Stuff" d="M34.559,0h96.655l12.665,155.744H0Z" fill="#c5cfd6"/>
            <path id="Seat_Stuff-2" data-name="Seat Stuff" d="M34.559,0H64.286L82.078,155.744H0Z" fill="rgba(0,0,0,0.1)"/>
          </g>
        </g>
        <path id="Skin" d="M71.478,177.785c-1.252-15.889-3.58-70.894-1.251-96.354.983-10.747,2.043-20.971,3.084-30.052-22.343,40.338-58.9,99.347-58.9,99.347L0,144.117s16.972-56.135,27.834-79.26c12.4-26.4,24.023-49,28.916-56.965,7.7-12.524,21.094-8.154,28.173-.573,10.305-6.212,27.595,1.769,27.583,10.654-.036,26.582-24.2,151.867-25.462,159.786-.668,4.191-4.769,6.751-8.6,6.751C75.039,184.51,71.849,182.486,71.478,177.785Z" transform="translate(225.298 18.75)" fill="#b28b67"/>
        <path id="LegLower" d="M0,140.376,6.247,12.946C10.836-9.085,49.924,1.191,49.923,13c0,26.81-15.944,119.4-15.945,127.392Z" transform="translate(274.339 10.175) rotate(20)" fill="#3c4169"/>
        <g id="Right_Shoe" data-name="Right Shoe" transform="translate(236.57 126.139) rotate(30)">
          <path id="shoe" d="M4.474,5.033A2,2,0,0,0,1.908,6.381L0,13.106A64.242,64.242,0,0,0,.9,21H57.3s2.2-7.268-2.538-7.848-7.87-1.047-7.87-1.047L20.68.419a1,1,0,0,0-1.332.532L17.663,5.039s-4.385,2.046-7.127,2.046Z" transform="translate(1 19)" fill="#e4e4e4"/>
        </g>
        <g id="Right_Shoe-2" data-name="Right Shoe" transform="translate(290.26 158.256)">
          <path id="shoe-2" data-name="shoe" d="M5.6,6.236A2.5,2.5,0,0,0,2.388,7.93L0,16.376a80.988,80.988,0,0,0,1.128,9.915H71.693s2.751-9.129-3.176-9.857-9.846-1.314-9.846-1.314L25.873.441a1.249,1.249,0,0,0-1.666.668L22.1,6.244s-5.486,2.57-8.916,2.57Z" transform="translate(1.251 23.949)" fill="#e4e4e4"/>
        </g>
        <path id="Leg_and_Butt" data-name="Leg and Butt" d="M213.655,45.76c0,33.368-15.785,111.2-15.8,118.55l-33.962.026s7.457-104.176,5.288-105.3S80.292,67.73,54.282,67.73C16.775,67.73,1.259,43.985,0,0H74.3c15.128,1.625,94.037,17.6,123.343,23.1C210.189,25.447,213.655,36.568,213.655,45.76Z" transform="translate(127.615)" fill="#323657"/>
      </g>
      <g id="Body_Long_Sleeve_1" data-name="Body/Long Sleeve 1" transform="translate(115.015 46.128)">
        <path id="Skin-2" data-name="Skin" d="M39.52,151.877,0,135.425l8.822-21.892,39.908,29.42q16.236,4.4,27.13,10.945c1.715,1.569,3.789,4.747-3.326,4.2s-14.622-.806-15.6,1.631,3.323,5.349,1.339,8.636a.943.943,0,0,1-.866.468Q53.9,168.83,39.52,151.877ZM13.012,29.6,60.435,15.306Q73.7,4.935,85.469.141c2.28-.431,6.057-.181,1.338,5.193s-9.44,11.238-8.094,13.491,6.256.555,7.677,4.124q1.42,3.569-24.4,5.113L25.12,49.846Z" transform="translate(126.521 0)" fill="#b28b67"/>
        <path id="Coat_Back" data-name="Coat Back" d="M16.88,0C48.4,33.67,86.829,55.659,139.227,75.18L127.618,98.507C73.569,93.341,44.673,89.23,21.99,55.516,16.3,47.055,6.1,17.95,0,2.835Z" transform="matrix(0.966, 0.259, -0.259, 0.966, 57.05, 29.933)" fill="#db2721"/>
        <path id="Shirt" d="M0,143.184H96.336S63.6,42.965,62.894,5.616C62.87,4.347,60.535,2.11,59.5,2.4,48.168,5.616,35.246,0,35.246,0,12.408,36.874,4.51,82.273,0,143.184Z" transform="translate(12.599 26.657)" fill="#f2f2f2"/>
        <path id="Coat_Front" data-name="Coat Front" d="M1.778,185.393C-6.379,130.352,15.062,54.038,34.94,15.545c.759-1.47,2.375-4.241,6.181-4.241H56.047l.02.059c5.029.041,10.628.243,16.735.445C100.227,12.713,137.893,13.62,180.153,0l5.1,25.589C146.2,50.8,106.66,70.335,72.011,67.561c15.045,64.79,14.352,117.832-18.866,117.832Z" transform="translate(0 15.353)" fill="#fd4132"/>
      </g>
    </g>
  </g>
</svg>
