<svg xmlns="http://www.w3.org/2000/svg" xmlns:xlink="http://www.w3.org/1999/xlink" width="541.975" height="502.435" viewBox="0 0 541.975 502.435">
  <defs>
    <clipPath id="clip-path">
      <path id="Mask" d="M268.028,496.978a201.044,201.044,0,0,0,193.5-146.345c4.873-17.319,80.444-74.422,80.444-93.3C541.975,146.433,379.028,0,268.028,0S-74.24,449.271,23.558,496.978c58.412,28.494,96.73-64.235,104.52-56.682A200.411,200.411,0,0,0,268.028,496.978Z" transform="translate(0)" fill="none"/>
    </clipPath>
    <clipPath id="clip-path-2">
      <path id="Path" d="M100.83,23.527c.86-2.477,6.723-10.15-3.719-17.46-1.876-1.314-4.976,0-7.662-.833-2.021-.624-2.7-3.441-5.019-3.932-2.4-.51-5.021,1.8-7.738,1.6C75.028,2.775,72.46.184,70.728.044,67.635-.205,64.825,2.712,61.8,2.9,60.053,3.008,58.021.193,56.283.044,52.052-.318,48.2,1.652,44.472,2.25c-3.436.551-5.033,7.585-7.564,9.248-7.941,5.217-14.164,6.676-20.608,12.03C8.64,29.892,7.174,34.628,4,38.87S-1.134,58.055.717,67.632C1.809,73.282,4.654,88.71,11.009,94.684c8.7,8.176,26.4,10.6,27.968,9.508,7.276-5.052,23.586-33,35.154-42.871C82.636,54.058,95.5,38.87,100.83,23.527Z" transform="translate(0 0)" fill="#ff9b21"/>
    </clipPath>
  </defs>
  <g id="Human" transform="translate(-0.304 -0.034)">
    <ellipse id="Background" cx="200.983" cy="200.806" rx="200.983" ry="200.806" transform="translate(67.35 95.399)" fill="#4d2f1f"/>
    <path id="Mask-2" data-name="Mask" d="M268.028,496.978a201.044,201.044,0,0,0,193.5-146.345c4.873-17.319,80.444-74.422,80.444-93.3C541.975,146.433,379.028,0,268.028,0S-74.24,449.271,23.558,496.978c58.412,28.494,96.73-64.235,104.52-56.682A200.411,200.411,0,0,0,268.028,496.978Z" transform="translate(0.304 0.033)" fill="none"/>
    <g id="Human-2" data-name="Human" transform="translate(0.304 0.033)" clip-path="url(#clip-path)">
      <g id="Human-3" data-name="Human" transform="translate(15.307 -31.878)">
        <g id="Head_Front" data-name="Head/Front" transform="translate(115.416)">
          <g id="Head" transform="translate(107.456 61.634)">
            <path id="Head-2" data-name="Head" d="M0,145.136,16.441,68.571C7.273,57.818,1.066,44.639,2.1,29.873,5.092-12.675,64.372-3.314,75.9,18.16s10.162,75.946-4.741,79.784c-5.944,1.531-18.6-2.219-31.491-9.979l8.089,57.172Z" transform="translate(0 0)" fill="#784931"/>
          </g>
          <g id="Turban" transform="translate(81.084 44.172)">
            <path id="Path-2" data-name="Path" d="M100.83,23.527c.86-2.477,6.723-10.15-3.719-17.46-1.876-1.314-4.976,0-7.662-.833-2.021-.624-2.7-3.441-5.019-3.932-2.4-.51-5.021,1.8-7.738,1.6C75.028,2.775,72.46.184,70.728.044,67.635-.205,64.825,2.712,61.8,2.9,60.053,3.008,58.021.193,56.283.044,52.052-.318,48.2,1.652,44.472,2.25c-3.436.551-5.033,7.585-7.564,9.248-7.941,5.217-14.164,6.676-20.608,12.03C8.64,29.892,7.174,34.628,4,38.87S-1.134,58.055.717,67.632C1.809,73.282,4.654,88.71,11.009,94.684c8.7,8.176,26.4,10.6,27.968,9.508,7.276-5.052,23.586-33,35.154-42.871C82.636,54.058,95.5,38.87,100.83,23.527Z" transform="translate(0 0)" fill="#ff9b21"/>
            <g id="Turban-2" data-name="Turban" transform="translate(0 0)" clip-path="url(#clip-path-2)">
              <path id="Shade" d="M20.282,43.761C25.069,26.8,29.728.617,29.728.617L35.609,0S25.874,41.035,20.515,57.469c-3.622,11.106-6.572,20.514-9.11,28.216,5.224-11.56,11.942-26.392,18.018-41.605C35.958,27.712,43.33,2.158,43.33,2.158h5.914S35.269,41.952,28.22,57.737c-7.557,16.922-12.987,29.774-17.314,38.4a467.307,467.307,0,0,0,30.28-51.217C47.945,31.677,57.1,4.361,57.1,4.361l5.5,2.353s-13.862,34.572-21.42,48.22C24.761,84.587,9.08,102.479,3.6,107.557c-.948.878-1.266,1.083-1.039.634a.216.216,0,0,1-.166-.135,14.388,14.388,0,0,1-1.154,1.532c-.437.5-.751.739-.953.739C-2.075,110.327,10.681,77.772,20.282,43.761Z" transform="translate(30.801 -2.935)" fill="rgba(0,0,0,0.2)"/>
            </g>
          </g>
        </g>
        <g id="Bottom_Skinny_Jeans_1" data-name="Bottom/Skinny Jeans 1" transform="translate(0 316.495)">
          <path id="Leg" d="M206.788,0c-38.022,31-23.44,302.974-25.977,306.4C179.119,308.679,0,345.17,0,345.17l5.163,21.051S214.7,355.9,226.907,340.352c17.476-22.268,43.118-249.132,43.118-249.132Z" transform="matrix(0.574, -0.819, 0.819, 0.574, 65.746, 224.685)" fill="#b28b67"/>
          <path id="Pant" d="M0,336.916l9.094,33.905c104.136,12,172.777-2.773,196.931-25.754s43.23-248.455,43.23-248.455L181.606,0C91.1,68.289,145.155,291.982,142.843,297.1S85.617,306.24,0,336.916Z" transform="matrix(0.574, -0.819, 0.819, 0.574, 77.824, 204.177)" fill="#323657"/>
          <g id="Right_Show" data-name="Right Show" transform="translate(353.339 369.534) rotate(20)">
            <path id="shoe" d="M4.474,5.033A2,2,0,0,0,1.908,6.381L0,13.106A64.242,64.242,0,0,0,.9,21H57.3s2.2-7.268-2.538-7.848-7.87-1.047-7.87-1.047L20.68.419a1,1,0,0,0-1.332.532L17.663,5.039s-4.385,2.046-7.127,2.046Z" transform="translate(1 19)" fill="#e4e4e4"/>
          </g>
          <path id="Leg-2" data-name="Leg" d="M204.175,0,101.2,246.985,0,455.791H23.877L285.113,0Z" transform="translate(6.757 55.294)" fill="#997659"/>
          <g id="Left_Shot" data-name="Left Shot" transform="translate(0 450.942)">
            <path id="shoe-2" data-name="shoe" d="M8.9,9.678a3.98,3.98,0,0,0-5.1,2.681L0,25.728c0,5.378,1.793,15.7,1.793,15.7H114.029s4.375-14.451-5.051-15.6-15.66-2.081-15.66-2.081L41.152.5A1.991,1.991,0,0,0,38.5,1.563L35.149,9.69s-8.726,4.068-14.181,4.068Z" transform="translate(1.99 38.103)" fill="#e4e4e4"/>
          </g>
          <path id="Pant-2" data-name="Pant" d="M0,412.414l53.056,9.941C94.078,362.1,265.759,115.02,284.583,0H166.468C103.608,83.148,39.1,351.159,0,412.414Z" transform="translate(15.897 55.294)" fill="#3c4169"/>
        </g>
        <g id="Body_Long_Sleeve_1" data-name="Body/Long Sleeve 1" transform="translate(0 163.031)">
          <path id="Skin" d="M63.258,231.161c-2.713-4.559-5.8-9.117-15.167-6.792-16.72,4.15-30.9,14.8-46.491.437-1.916-1.764-3.32-7.283,3.217-10.113,16.283-7.052,40.339-20.254,44.24-25.38q7.981-10.487,49.462-119.724L139.3,77.669Q77.782,192.206,73.319,199.078c-6.7,10.309-.448,29.2,1.859,39.149a12.573,12.573,0,0,1-2.839.355C67.431,238.582,65.467,234.872,63.258,231.161ZM390.026,60.873l72.1-31.638Q481.077,10.371,498.722.56c3.517-1.118,9.526-1.457,3.114,7.9S489.1,27.946,491.664,31.225s9.983-.34,12.914,4.992q2.934,5.333-37.527,12.758l-54,41.366Z" transform="translate(0 93.444)" fill="#b28b67"/>
          <path id="Coat_Back" data-name="Coat Back" d="M0,4.437,16.885,0c40.5,32.92,63.344,118.523,89.233,127.853,24.477,8.822,56.9-4.624,95.3-22.308l14.51,26.037c-32.61,42.082-106.462,81.685-139.206,65.63C24.371,171.542,3.511,65.324,0,4.437Z" transform="matrix(0.996, 0.087, -0.087, 0.996, 250.511, 6.181)" fill="#db2721"/>
          <path id="Shirt" d="M0,226.653H152.252c6.957,0,5.646-10.037,4.641-15.1C145.286,153.1,99.977,90.087,99.977,6.881L56.06,0C19.735,58.37,7.173,130.235,0,226.653Z" transform="translate(175.114)" fill="#dde3e9"/>
          <path id="Coat_Front" data-name="Coat Front" d="M0,282.041Q30.835,90.973,178.592,0H195.98s59.139,201.414,32.607,268.4H91.536c2.169-32.68,9.121-67.237,18.644-100.934Q63.624,251.376,31.913,288.286Z" transform="translate(49.748)" fill="#fd4132"/>
        </g>
      </g>
    </g>
  </g>
</svg>
