<svg xmlns="http://www.w3.org/2000/svg" width="103.71" height="103.855" viewBox="0 0 103.71 103.855">
  <defs>
    <style>
      .cls-1 {
        fill: #7e3052;
      }
    </style>
  </defs>
  <g id="online-course" transform="translate(0 0.146)">
    <path id="Path_243" data-name="Path 243" class="cls-1" d="M141.333,71.161c-2.942,2.135-6.954,3.173-12.264,3.173h-1.043A2.026,2.026,0,0,0,126,76.359v30.384a2.026,2.026,0,0,0,2.026,2.026h1.043c6.2,0,10.985-1.29,14.643-3.945a4.439,4.439,0,0,1,4.079-.532,4.051,4.051,0,0,1,2.577,2.943v0a2.032,2.032,0,0,0,1.953,1.532h.013a2.036,2.036,0,0,0,1.963-1.534,4.051,4.051,0,0,1,2.577-2.943,4.437,4.437,0,0,1,4.078.532c3.658,2.655,8.448,3.945,14.644,3.945h1.043a2.026,2.026,0,0,0,2.026-2.026V76.359a2.026,2.026,0,0,0-2.026-2.026H175.6c-5.311,0-9.322-1.038-12.264-3.173a8.537,8.537,0,0,0-7.843-1.06,8.013,8.013,0,0,0-3.157,2.092,8.017,8.017,0,0,0-3.157-2.092,8.537,8.537,0,0,0-7.842,1.06Zm15.541,2.747a4.437,4.437,0,0,1,4.078.532c3.462,2.513,7.939,3.8,13.661,3.934V104.7c-4.826-.122-8.524-1.159-11.282-3.161a8.537,8.537,0,0,0-7.843-1.06,8.246,8.246,0,0,0-1.131.515V76.64A4.035,4.035,0,0,1,156.875,73.907Zm-6.568,2.722v24.365a8.251,8.251,0,0,0-1.131-.511,8.537,8.537,0,0,0-7.843,1.06c-2.758,2-6.456,3.038-11.282,3.161V78.373c5.722-.131,10.2-1.422,13.661-3.934a4.439,4.439,0,0,1,4.078-.532A4.029,4.029,0,0,1,150.307,76.629Z" transform="translate(-100.478 -55.495)"/>
    <path id="Path_244" data-name="Path 244" class="cls-1" d="M218.026,303a2.026,2.026,0,0,0,0,4.051h12.153a2.026,2.026,0,0,0,0-4.051Z" transform="translate(-172.247 -241.626)"/>
    <ellipse id="Ellipse_39" data-name="Ellipse 39" class="cls-1" cx="2" cy="2.5" rx="2" ry="2.5" transform="translate(49.855 -0.145)"/>
    <path id="Path_245" data-name="Path 245" class="cls-1" d="M97.633,0H60.97a2.026,2.026,0,1,0,0,4.051H97.633a2.028,2.028,0,0,1,2.026,2.026V72.112a2.028,2.028,0,0,1-2.026,2.026H6.077a2.028,2.028,0,0,1-2.026-2.026V6.078A2.028,2.028,0,0,1,6.077,4.052H42.74A2.026,2.026,0,1,0,42.74,0H6.077A6.084,6.084,0,0,0,0,6.078V72.112a6.084,6.084,0,0,0,6.077,6.077H43.214L38.1,99.66H27.548a2.026,2.026,0,1,0,0,4.051H76.162a2.026,2.026,0,0,0,0-4.051H65.609L60.5,78.188H97.633a6.084,6.084,0,0,0,6.077-6.077V6.078A6.084,6.084,0,0,0,97.633,0ZM61.444,99.66H42.266l5.112-21.471h8.953Z" transform="translate(0 -0.001)"/>
  </g>
</svg>
