<svg xmlns="http://www.w3.org/2000/svg" width="928.047" height="572.948" viewBox="0 0 928.047 572.948">
  <g id="Group_157" data-name="Group 157" transform="translate(-822.051 -309.992)">
    <g id="Group_135" data-name="Group 135" transform="translate(1548.385 584.496)">
      <path id="Path_404" data-name="Path 404" d="M1675.914,1407.206v.72a5.022,5.022,0,0,0,5.022,5.022h0a5.022,5.022,0,0,0,5.023-5.022v-.72h7.162a3.653,3.653,0,0,0,3.328-2.146l.217-.479a10.381,10.381,0,0,0,.924-4.283v-8.841a2.226,2.226,0,0,0-2.225-2.227h-27.8a2.226,2.226,0,0,0-2.226,2.227v8.935a10.388,10.388,0,0,0,.956,4.351l.761,1.65a1.439,1.439,0,0,0,1.333.836l1.923-.035" transform="translate(-1634.149 -1301.473)" fill="none" stroke="#eaab00" stroke-linecap="round" stroke-miterlimit="10" stroke-width="4"/>
      <path id="Path_405" data-name="Path 405" d="M1684.754,1322.518v-5.292a13.242,13.242,0,0,1,4.122-9.664,28.675,28.675,0,0,0,9.088-20.971c0-19.878-20.133-35.053-41.12-26.245a26,26,0,0,0-13.829,13.7c-5.565,13-1.91,25.65,6.368,33.465a13.357,13.357,0,0,1,4.179,9.716v5.293" transform="translate(-1622.371 -1239.517)" fill="none" stroke="#eaab00" stroke-linecap="round" stroke-miterlimit="10" stroke-width="4"/>
      <line id="Line_51" data-name="Line 51" x2="14.274" transform="translate(36.478 93.045)" fill="none" stroke="#eaab00" stroke-linecap="round" stroke-miterlimit="10" stroke-width="4"/>
      <line id="Line_52" data-name="Line 52" x2="14.274" transform="translate(43.879 99.389)" fill="none" stroke="#eaab00" stroke-linecap="round" stroke-miterlimit="10" stroke-width="4"/>
      <line id="Line_53" data-name="Line 53" y2="11.631" transform="translate(47.051 0)" fill="none" stroke="#eaab00" stroke-linecap="round" stroke-miterlimit="10" stroke-width="4"/>
      <line id="Line_54" data-name="Line 54" x1="5.786" y2="10.017" transform="translate(64.804 6.402)" fill="none" stroke="#eaab00" stroke-linecap="round" stroke-miterlimit="10" stroke-width="4"/>
      <line id="Line_55" data-name="Line 55" x1="10.021" y2="5.78" transform="translate(77.806 23.47)" fill="none" stroke="#eaab00" stroke-linecap="round" stroke-miterlimit="10" stroke-width="4"/>
      <line id="Line_56" data-name="Line 56" x1="11.631" y1="0.008" transform="translate(82.472 47.044)" fill="none" stroke="#eaab00" stroke-linecap="round" stroke-miterlimit="10" stroke-width="4"/>
      <line id="Line_57" data-name="Line 57" x1="10.014" y1="5.793" transform="translate(78.028 64.538)" fill="none" stroke="#eaab00" stroke-linecap="round" stroke-miterlimit="10" stroke-width="4"/>
      <line id="Line_58" data-name="Line 58" y1="5.767" x2="10.029" transform="translate(6.886 64.883)" fill="none" stroke="#eaab00" stroke-linecap="round" stroke-miterlimit="10" stroke-width="4"/>
      <line id="Line_59" data-name="Line 59" x2="11.631" y2="0.023" transform="translate(0 47.58)" fill="none" stroke="#eaab00" stroke-linecap="round" stroke-miterlimit="10" stroke-width="4"/>
      <line id="Line_60" data-name="Line 60" x2="10.006" y2="5.806" transform="translate(6.733 23.789)" fill="none" stroke="#eaab00" stroke-linecap="round" stroke-miterlimit="10" stroke-width="4"/>
      <line id="Line_61" data-name="Line 61" x2="5.76" y2="10.033" transform="translate(23.835 6.585)" fill="none" stroke="#eaab00" stroke-linecap="round" stroke-miterlimit="10" stroke-width="4"/>
      <path id="Path_406" data-name="Path 406" d="M1681.34,1339.639v-30.573l6.749-13.835h.247l6.75,13.835v30.573" transform="translate(-1641.69 -1257.167)" fill="none" stroke="#eaab00" stroke-linecap="round" stroke-miterlimit="10" stroke-width="4"/>
      <line id="Line_62" data-name="Line 62" x2="10.573" transform="translate(41.236 55.51)" fill="none" stroke="#eaab00" stroke-linecap="round" stroke-miterlimit="10" stroke-width="4"/>
      <line id="Line_63" data-name="Line 63" x2="0.112" y2="25.376" transform="translate(46.523 55.51)" fill="none" stroke="#eaab00" stroke-linecap="round" stroke-miterlimit="10" stroke-width="4"/>
    </g>
    <g id="Group_137" data-name="Group 137" transform="translate(1313.788 311.992)">
      <path id="Path_407" data-name="Path 407" d="M1918.959,317.7V263.505a1.317,1.317,0,0,0-1.317-1.318h-.8" transform="translate(-1808.996 -254.258)" fill="none" stroke="#eaab00" stroke-linecap="round" stroke-miterlimit="10" stroke-width="4"/>
      <path id="Path_408" data-name="Path 408" d="M1714.958,262.188h-.8a1.317,1.317,0,0,0-1.317,1.318v72.582a.642.642,0,0,0,.643.642h35.088a19.324,19.324,0,0,1,9.288,2.379l4.339,2.379h11.374l4.339-2.379a19.322,19.322,0,0,1,9.288-2.379h10.229" transform="translate(-1712.844 -254.258)" fill="none" stroke="#eaab00" stroke-linecap="round" stroke-miterlimit="10" stroke-width="4"/>
      <path id="Path_409" data-name="Path 409" d="M1863.712,307.985V248.319a1.131,1.131,0,0,0-1.131-1.131h-30.427a15.7,15.7,0,0,0-12.931,6.8h0a15.7,15.7,0,0,0-2.768,8.9" transform="translate(-1761.679 -247.188)" fill="none" stroke="#eaab00" stroke-linecap="round" stroke-miterlimit="10" stroke-width="4"/>
      <path id="Path_410" data-name="Path 410" d="M1774.5,262.888a15.7,15.7,0,0,0-2.769-8.9h0a15.7,15.7,0,0,0-12.931-6.8h-30.823a1.131,1.131,0,0,0-1.131,1.131v72.851a.56.56,0,0,0,.56.56h37.029a4.25,4.25,0,0,1,3.507,1.85l1.265,1.85h9.761l1.266-1.85a4.249,4.249,0,0,1,3.507-1.85h17.647" transform="translate(-1719.443 -247.188)" fill="none" stroke="#eaab00" stroke-linecap="round" stroke-miterlimit="10" stroke-width="4"/>
      <line id="Line_64" data-name="Line 64" x1="0.037" y2="58.153" transform="translate(54.944 13.746)" fill="none" stroke="#eaab00" stroke-linecap="round" stroke-miterlimit="10" stroke-width="4"/>
      <path id="Path_411" data-name="Path 411" d="M1888.039,397.034l3.953-13.2,13.2-3.952a1.782,1.782,0,0,0-.791-2.979l-23.6-6.448a1.782,1.782,0,0,0-2.188,2.189l6.448,23.6A1.782,1.782,0,0,0,1888.039,397.034Z" transform="translate(-1790.946 -305.256)" fill="none" stroke="#eaab00" stroke-linecap="round" stroke-miterlimit="10" stroke-width="4"/>
      <g id="Group_136" data-name="Group 136" transform="translate(71.899 50.223)">
        <line id="Line_65" data-name="Line 65" y2="2.643" transform="translate(6.873)" fill="none" stroke="#eaab00" stroke-linecap="round" stroke-miterlimit="10" stroke-width="4"/>
        <line id="Line_66" data-name="Line 66" y2="2.115" transform="translate(6.873 13.217)" fill="none" stroke="#eaab00" stroke-linecap="round" stroke-miterlimit="10" stroke-width="4"/>
        <line id="Line_67" data-name="Line 67" x1="2.643" transform="translate(11.631 7.93)" fill="none" stroke="#eaab00" stroke-linecap="round" stroke-miterlimit="10" stroke-width="4"/>
        <line id="Line_68" data-name="Line 68" x1="2.115" transform="translate(0 7.93)" fill="none" stroke="#eaab00" stroke-linecap="round" stroke-miterlimit="10" stroke-width="4"/>
      </g>
    </g>
    <g id="Group_139" data-name="Group 139" transform="translate(1628 769.06)">
      <g id="Group_138" data-name="Group 138" transform="translate(9.09 0)">
        <path id="Path_412" data-name="Path 412" d="M2022.918,1664.333a38.283,38.283,0,1,1-54.136,0A38.28,38.28,0,0,1,2022.918,1664.333Z" transform="translate(-1957.568 -1653.123)" fill="none" stroke="#eaab00" stroke-linecap="round" stroke-miterlimit="10" stroke-width="4"/>
        <path id="Path_413" data-name="Path 413" d="M2000.029,1659.6c10.735,2.539,22.113,8.915,31.873,18.675,9.846,9.846,16.243,21.35,18.74,32.177" transform="translate(-1977.582 -1656.177)" fill="none" stroke="#eaab00" stroke-linecap="round" stroke-miterlimit="10" stroke-width="4"/>
        <path id="Path_414" data-name="Path 414" d="M1965.36,1694.273c2.54,10.734,8.909,22.118,18.67,31.879,9.846,9.846,21.35,16.242,32.182,18.736" transform="translate(-1961.241 -1672.518)" fill="none" stroke="#eaab00" stroke-linecap="round" stroke-miterlimit="10" stroke-width="4"/>
        <line id="Line_69" data-name="Line 69" x2="54.221" y2="54.221" transform="translate(11.292 11.274)" fill="none" stroke="#eaab00" stroke-linecap="round" stroke-miterlimit="10" stroke-width="4"/>
        <line id="Line_70" data-name="Line 70" y1="54.221" x2="54.221" transform="translate(11.292 11.274)" fill="none" stroke="#eaab00" stroke-linecap="round" stroke-miterlimit="10" stroke-width="4"/>
        <line id="Line_71" data-name="Line 71" y1="46.714" x2="46.714" transform="translate(2.533 1.681)" fill="none" stroke="#eaab00" stroke-linecap="round" stroke-miterlimit="10" stroke-width="4"/>
        <line id="Line_72" data-name="Line 72" y1="47.131" x2="47.131" transform="translate(27.558 27.957)" fill="none" stroke="#eaab00" stroke-linecap="round" stroke-miterlimit="10" stroke-width="4"/>
      </g>
      <path id="Path_415" data-name="Path 415" d="M1956.467,1665.172l-2.152-2.137a.181.181,0,0,0-.255,0,47.162,47.162,0,0,0,66.7,66.7.182.182,0,0,0,0-.254l-1.9-1.924" transform="translate(-1940.374 -1657.77)" fill="none" stroke="#eaab00" stroke-linecap="round" stroke-miterlimit="10" stroke-width="4"/>
      <line id="Line_73" data-name="Line 73" y2="14.274" transform="translate(38.672 91.262)" fill="none" stroke="#eaab00" stroke-linecap="round" stroke-miterlimit="10" stroke-width="4"/>
      <line id="Line_74" data-name="Line 74" y2="14.274" transform="translate(49.245 91.262)" fill="none" stroke="#eaab00" stroke-linecap="round" stroke-miterlimit="10" stroke-width="4"/>
      <path id="Path_416" data-name="Path 416" d="M1973.523,1859.094v-1.764a4.58,4.58,0,0,1,4.58-4.58h44.236a4.579,4.579,0,0,1,4.579,4.58v1.764" transform="translate(-1955.998 -1747.214)" fill="none" stroke="#eaab00" stroke-linecap="round" stroke-miterlimit="10" stroke-width="4"/>
      <line id="Line_75" data-name="Line 75" x2="72.956" transform="translate(7.48 111.88)" fill="none" stroke="#eaab00" stroke-linecap="round" stroke-miterlimit="10" stroke-width="4"/>
    </g>
    <g id="Group_141" data-name="Group 141" transform="translate(981.623 393.787)">
      <path id="Path_417" data-name="Path 417" d="M1015.629,505.46a10.86,10.86,0,0,1,10.879,10.84v51.257a10.859,10.859,0,0,1-10.859,10.859h-93a10.859,10.859,0,0,1-10.86-10.859V516.3a10.86,10.86,0,0,1,10.88-10.84Z" transform="translate(-911.788 -505.46)" fill="none" stroke="#eaab00" stroke-linecap="round" stroke-miterlimit="10" stroke-width="4"/>
      <line id="Line_76" data-name="Line 76" x2="103.09" transform="translate(0 58.154)" fill="none" stroke="#eaab00" stroke-linecap="round" stroke-miterlimit="10" stroke-width="4"/>
      <path id="Path_418" data-name="Path 418" d="M982.062,655.46v2.174a10.924,10.924,0,0,1-5.054,9.214L968.3,672.4a1.1,1.1,0,0,0-.51.928v5.4h53.4v-5.394a1.1,1.1,0,0,0-.511-.931l-8.694-5.539a10.958,10.958,0,0,1-5.069-9.241V655.46" transform="translate(-938.183 -576.16)" fill="none" stroke="#eaab00" stroke-linecap="round" stroke-miterlimit="10" stroke-width="4"/>
      <line id="Line_77" data-name="Line 77" x2="26.962" transform="translate(30.134 96.217)" fill="none" stroke="#eaab00" stroke-linecap="round" stroke-miterlimit="10" stroke-width="4"/>
      <path id="Path_419" data-name="Path 419" d="M1007.788,549.442V536.06a.984.984,0,0,1,1.471-.854l11.72,6.691a.983.983,0,0,1,0,1.708l-11.72,6.691A.983.983,0,0,1,1007.788,549.442Z" transform="translate(-957.036 -519.419)" fill="none" stroke="#eaab00" stroke-linecap="round" stroke-miterlimit="10" stroke-width="4"/>
      <g id="Group_140" data-name="Group 140" transform="translate(25.376 42.294)">
        <line id="Line_78" data-name="Line 78" x2="32.249" fill="none" stroke="#eaab00" stroke-linecap="round" stroke-miterlimit="10" stroke-width="4"/>
        <line id="Line_79" data-name="Line 79" x2="1.586" transform="translate(38.593)" fill="none" stroke="#eaab00" stroke-linecap="round" stroke-miterlimit="10" stroke-width="4"/>
        <line id="Line_80" data-name="Line 80" x2="1.586" transform="translate(46.523)" fill="none" stroke="#eaab00" stroke-linecap="round" stroke-miterlimit="10" stroke-width="4"/>
        <line id="Line_81" data-name="Line 81" x2="1.586" transform="translate(54.453)" fill="none" stroke="#eaab00" stroke-linecap="round" stroke-miterlimit="10" stroke-width="4"/>
        <line id="Line_82" data-name="Line 82" x2="1.586" transform="translate(62.383)" fill="none" stroke="#eaab00" stroke-linecap="round" stroke-miterlimit="10" stroke-width="4"/>
      </g>
    </g>
    <g id="Group_142" data-name="Group 142" transform="translate(1488.131 391.012)">
      <path id="Path_420" data-name="Path 420" d="M2162.037,628.323v-2.2a11.547,11.547,0,0,1,11.546-11.547h.168a11.547,11.547,0,0,1,11.547,11.547v77.655a12.688,12.688,0,0,1-12.688,12.688h0a12.689,12.689,0,0,1-12.688-12.688v-4.615" transform="translate(-2129.509 -614.578)" fill="none" stroke="#eaab00" stroke-linecap="round" stroke-miterlimit="10" stroke-width="4"/>
      <path id="Path_421" data-name="Path 421" d="M2139.969,640.206a9.57,9.57,0,0,1,11.425-15.355" transform="translate(-2118.286 -618.528)" fill="none" stroke="#eaab00" stroke-linecap="round" stroke-miterlimit="10" stroke-width="4"/>
      <path id="Path_422" data-name="Path 422" d="M2193.135,732.32a12.25,12.25,0,0,1-15.414,7.906" transform="translate(-2137.898 -670.074)" fill="none" stroke="#eaab00" stroke-linecap="round" stroke-miterlimit="10" stroke-width="4"/>
      <path id="Path_423" data-name="Path 423" d="M2156.912,697.014a10.131,10.131,0,0,1-5.609-13.183" transform="translate(-2125.1 -647.219)" fill="none" stroke="#eaab00" stroke-linecap="round" stroke-miterlimit="10" stroke-width="4"/>
      <path id="Path_424" data-name="Path 424" d="M2140.535,757.9a5.746,5.746,0,0,1-5.6-5.892" transform="translate(-2117.732 -679.355)" fill="none" stroke="#eaab00" stroke-linecap="round" stroke-miterlimit="10" stroke-width="4"/>
      <path id="Path_425" data-name="Path 425" d="M2182.844,661.868a10.13,10.13,0,0,1,11.149-9" transform="translate(-2140.313 -632.599)" fill="none" stroke="#eaab00" stroke-linecap="round" stroke-miterlimit="10" stroke-width="4"/>
      <path id="Path_426" data-name="Path 426" d="M2142.831,753.676a14.135,14.135,0,0,1-22.226-17.47" transform="translate(-2109.552 -671.906)" fill="none" stroke="#eaab00" stroke-linecap="round" stroke-miterlimit="10" stroke-width="4"/>
      <path id="Path_427" data-name="Path 427" d="M2118.7,673.729a10.934,10.934,0,1,1,13.054-17.545" transform="translate(-2108.001 -633.169)" fill="none" stroke="#eaab00" stroke-linecap="round" stroke-miterlimit="10" stroke-width="4"/>
      <path id="Path_428" data-name="Path 428" d="M2127.208,708.7a15.133,15.133,0,1,1-18.338-24.045" transform="translate(-2102.395 -647.606)" fill="none" stroke="#eaab00" stroke-linecap="round" stroke-miterlimit="10" stroke-width="4"/>
      <path id="Path_429" data-name="Path 429" d="M2214.889,788.27a12.666,12.666,0,0,0,8.985,3.722h0a12.708,12.708,0,0,0,12.708-12.707v-4.707" transform="translate(-2155.417 -689.991)" fill="none" stroke="#eaab00" stroke-linecap="round" stroke-miterlimit="10" stroke-width="4"/>
      <path id="Path_430" data-name="Path 430" d="M2234.348,628.451V626.4a11.547,11.547,0,0,0-11.546-11.547h0a11.511,11.511,0,0,0-8.165,3.383" transform="translate(-2155.298 -614.706)" fill="none" stroke="#eaab00" stroke-linecap="round" stroke-miterlimit="10" stroke-width="4"/>
      <path id="Path_431" data-name="Path 431" d="M2262.159,640.206a9.57,9.57,0,1,0-11.425-15.355" transform="translate(-2172.313 -618.528)" fill="none" stroke="#eaab00" stroke-linecap="round" stroke-miterlimit="10" stroke-width="4"/>
      <path id="Path_432" data-name="Path 432" d="M2208.877,691.3a12.25,12.25,0,0,0,15.414,7.906" transform="translate(-2152.584 -650.739)" fill="none" stroke="#eaab00" stroke-linecap="round" stroke-miterlimit="10" stroke-width="4"/>
      <path id="Path_433" data-name="Path 433" d="M2234.507,746.034a10.131,10.131,0,0,0,5.611-13.182" transform="translate(-2164.664 -670.325)" fill="none" stroke="#eaab00" stroke-linecap="round" stroke-miterlimit="10" stroke-width="4"/>
      <path id="Path_434" data-name="Path 434" d="M2240.849,665.92a6.145,6.145,0,0,0,5.986-6.3" transform="translate(-2167.653 -635.808)" fill="none" stroke="#eaab00" stroke-linecap="round" stroke-miterlimit="10" stroke-width="4"/>
      <path id="Path_435" data-name="Path 435" d="M2280.09,707.739a7.5,7.5,0,0,0-8.249-6.658" transform="translate(-2182.261 -655.329)" fill="none" stroke="#eaab00" stroke-linecap="round" stroke-miterlimit="10" stroke-width="4"/>
      <path id="Path_436" data-name="Path 436" d="M2250.411,753.676a14.136,14.136,0,1,0,22.227-17.47" transform="translate(-2172.16 -671.906)" fill="none" stroke="#eaab00" stroke-linecap="round" stroke-miterlimit="10" stroke-width="4"/>
      <path id="Path_437" data-name="Path 437" d="M2281.488,673.729a10.934,10.934,0,0,0-13.055-17.545" transform="translate(-2180.655 -633.169)" fill="none" stroke="#eaab00" stroke-linecap="round" stroke-miterlimit="10" stroke-width="4"/>
      <path id="Path_438" data-name="Path 438" d="M2266.424,708.7a15.133,15.133,0,1,0,18.338-24.045" transform="translate(-2179.708 -647.606)" fill="none" stroke="#eaab00" stroke-linecap="round" stroke-miterlimit="10" stroke-width="4"/>
    </g>
    <g id="Group_143" data-name="Group 143" transform="translate(1632.861 466.111)">
      <path id="Path_439" data-name="Path 439" d="M2340.618,1283.573a18.194,18.194,0,0,1,0,36.388" transform="translate(-2277.587 -1251.708)" fill="none" stroke="#eaab00" stroke-linecap="round" stroke-miterlimit="10" stroke-width="4"/>
      <path id="Path_440" data-name="Path 440" d="M2337.366,1324.139l10.215.008a4.054,4.054,0,0,0,4.059-4.052l0-4.867a6.941,6.941,0,0,1,4.3-6.432l.408-.169a7,7,0,0,1,7.65,1.5l3.372,3.353a4.06,4.06,0,0,0,5.724,0l7.641-7.591a4.059,4.059,0,0,0,0-5.759l-3.449-3.431a6.781,6.781,0,0,1-1.482-7.448c.057-.135.115-.271.17-.406a7.059,7.059,0,0,1,6.536-4.362h4.717a4.06,4.06,0,0,0,4.06-4.06v-11.573a3.929,3.929,0,0,0-3.928-3.928h-5.118a6.875,6.875,0,0,1-6.354-4.248l-.188-.455a6.889,6.889,0,0,1,1.491-7.5l3.523-3.53a3.928,3.928,0,0,0,.013-5.537l-7.769-7.856a3.928,3.928,0,0,0-5.573-.013l-3.64,3.647a6.542,6.542,0,0,1-7.209,1.422q-.344-.149-.692-.291a6.812,6.812,0,0,1-4.206-6.33l.01-4.87a4.078,4.078,0,0,0-4.069-4.086l-10.215-.022" transform="translate(-2276.054 -1224.221)" fill="none" stroke="#eaab00" stroke-linecap="round" stroke-miterlimit="10" stroke-width="4"/>
      <path id="Path_441" data-name="Path 441" d="M2281.481,1237.043v-2.2a11.547,11.547,0,0,1,11.547-11.547h.167a11.547,11.547,0,0,1,11.547,11.547V1312.5a12.688,12.688,0,0,1-12.688,12.688h0a12.688,12.688,0,0,1-12.688-12.687v-4.615" transform="translate(-2248.716 -1223.298)" fill="none" stroke="#eaab00" stroke-linecap="round" stroke-miterlimit="10" stroke-width="4"/>
      <path id="Path_442" data-name="Path 442" d="M2258.965,1249.014a9.57,9.57,0,1,1,11.426-15.355" transform="translate(-2237.282 -1227.289)" fill="none" stroke="#eaab00" stroke-linecap="round" stroke-miterlimit="10" stroke-width="4"/>
      <path id="Path_443" data-name="Path 443" d="M2312.131,1341.128a12.25,12.25,0,0,1-15.415,7.906" transform="translate(-2256.894 -1278.835)" fill="none" stroke="#eaab00" stroke-linecap="round" stroke-miterlimit="10" stroke-width="4"/>
      <path id="Path_444" data-name="Path 444" d="M2275.908,1305.822a10.131,10.131,0,0,1-5.61-13.182" transform="translate(-2244.096 -1255.981)" fill="none" stroke="#eaab00" stroke-linecap="round" stroke-miterlimit="10" stroke-width="4"/>
      <path id="Path_445" data-name="Path 445" d="M2259.53,1366.711a5.747,5.747,0,0,1-5.6-5.892" transform="translate(-2236.728 -1288.116)" fill="none" stroke="#eaab00" stroke-linecap="round" stroke-miterlimit="10" stroke-width="4"/>
      <path id="Path_446" data-name="Path 446" d="M2301.84,1270.675a10.131,10.131,0,0,1,11.148-9" transform="translate(-2259.309 -1241.36)" fill="none" stroke="#eaab00" stroke-linecap="round" stroke-miterlimit="10" stroke-width="4"/>
      <path id="Path_447" data-name="Path 447" d="M2261.827,1362.484a14.135,14.135,0,1,1-22.227-17.47" transform="translate(-2228.549 -1280.667)" fill="none" stroke="#eaab00" stroke-linecap="round" stroke-miterlimit="10" stroke-width="4"/>
      <path id="Path_448" data-name="Path 448" d="M2237.694,1282.537a10.934,10.934,0,1,1,13.055-17.544" transform="translate(-2226.997 -1241.93)" fill="none" stroke="#eaab00" stroke-linecap="round" stroke-miterlimit="10" stroke-width="4"/>
      <path id="Path_449" data-name="Path 449" d="M2246.2,1317.5a15.133,15.133,0,1,1-18.338-24.044" transform="translate(-2221.391 -1256.367)" fill="none" stroke="#eaab00" stroke-linecap="round" stroke-miterlimit="10" stroke-width="4"/>
    </g>
    <g id="Group_144" data-name="Group 144" transform="translate(964.349 587.87)">
      <path id="Path_450" data-name="Path 450" d="M856.285,1805.293v.782a5.45,5.45,0,0,0,5.45,5.451h0a5.45,5.45,0,0,0,5.451-5.451v-.782h7.773a3.963,3.963,0,0,0,3.611-2.329l.235-.519a11.271,11.271,0,0,0,1-4.649V1788.2a2.416,2.416,0,0,0-2.416-2.416H847.226a2.415,2.415,0,0,0-2.416,2.416v9.7a11.266,11.266,0,0,0,1.037,4.721l.826,1.79a1.561,1.561,0,0,0,1.448.908l2.086-.037" transform="translate(-810.958 -1690.543)" fill="none" stroke="#eaab00" stroke-linecap="round" stroke-miterlimit="10" stroke-width="4"/>
      <path id="Path_451" data-name="Path 451" d="M832.028,1713.435v-5.745a14.5,14.5,0,0,0-4.536-10.544c-8.984-8.483-12.951-22.212-6.911-36.32a28.221,28.221,0,0,1,15.009-14.866,34.9,34.9,0,0,1,11.423-2.72" transform="translate(-798.176 -1623.356)" fill="none" stroke="#eaab00" stroke-linecap="round" stroke-miterlimit="10" stroke-width="4"/>
      <line id="Line_83" data-name="Line 83" x2="15.491" transform="translate(39.589 100.981)" fill="none" stroke="#eaab00" stroke-linecap="round" stroke-miterlimit="10" stroke-width="4"/>
      <line id="Line_84" data-name="Line 84" x2="15.491" transform="translate(47.622 107.866)" fill="none" stroke="#eaab00" stroke-linecap="round" stroke-miterlimit="10" stroke-width="4"/>
      <line id="Line_85" data-name="Line 85" y2="12.623" transform="translate(51.064 0)" fill="none" stroke="#eaab00" stroke-linecap="round" stroke-miterlimit="10" stroke-width="4"/>
      <line id="Line_86" data-name="Line 86" y1="6.259" x2="10.884" transform="translate(7.474 70.417)" fill="none" stroke="#eaab00" stroke-linecap="round" stroke-miterlimit="10" stroke-width="4"/>
      <line id="Line_87" data-name="Line 87" x2="12.623" y2="0.025" transform="translate(0 51.638)" fill="none" stroke="#eaab00" stroke-linecap="round" stroke-miterlimit="10" stroke-width="4"/>
      <line id="Line_88" data-name="Line 88" x2="10.86" y2="6.301" transform="translate(7.307 25.818)" fill="none" stroke="#eaab00" stroke-linecap="round" stroke-miterlimit="10" stroke-width="4"/>
      <line id="Line_89" data-name="Line 89" x2="6.252" y2="10.888" transform="translate(25.868 7.147)" fill="none" stroke="#eaab00" stroke-linecap="round" stroke-miterlimit="10" stroke-width="4"/>
      <path id="Path_452" data-name="Path 452" d="M915.876,1771.952a10.042,10.042,0,0,0,.508-3.167v-3.726" transform="translate(-844.454 -1680.773)" fill="none" stroke="#eaab00" stroke-linecap="round" stroke-miterlimit="10" stroke-width="4"/>
      <path id="Path_453" data-name="Path 453" d="M898.545,1648.311v-1.626a9.139,9.139,0,0,0-9.139-9.139h-.076a6.537,6.537,0,0,0-6.4,6.571l-.14,65.984" transform="translate(-828.862 -1620.672)" fill="none" stroke="#eaab00" stroke-linecap="round" stroke-miterlimit="10" stroke-width="4"/>
      <path id="Path_454" data-name="Path 454" d="M920.689,1657.615a7.575,7.575,0,1,0-9.043-12.154" transform="translate(-842.46 -1623.697)" fill="none" stroke="#eaab00" stroke-linecap="round" stroke-miterlimit="10" stroke-width="4"/>
      <path id="Path_455" data-name="Path 455" d="M895.408,1738.709a8.019,8.019,0,0,0,4.441-10.435" transform="translate(-834.807 -1663.435)" fill="none" stroke="#eaab00" stroke-linecap="round" stroke-miterlimit="10" stroke-width="4"/>
      <path id="Path_456" data-name="Path 456" d="M900.428,1676.413a4.864,4.864,0,0,0,4.739-4.987" transform="translate(-837.173 -1636.641)" fill="none" stroke="#eaab00" stroke-linecap="round" stroke-miterlimit="10" stroke-width="4"/>
      <path id="Path_457" data-name="Path 457" d="M924.42,1706.454a5.933,5.933,0,0,0-6.529-5.271" transform="translate(-845.404 -1650.65)" fill="none" stroke="#eaab00" stroke-linecap="round" stroke-miterlimit="10" stroke-width="4"/>
      <path id="Path_458" data-name="Path 458" d="M911.391,1747.43a11.188,11.188,0,1,0,17.593-13.827" transform="translate(-842.34 -1665.946)" fill="none" stroke="#eaab00" stroke-linecap="round" stroke-miterlimit="10" stroke-width="4"/>
      <path id="Path_459" data-name="Path 459" d="M935.988,1684.15a8.655,8.655,0,0,0-10.333-13.888" transform="translate(-849.063 -1635.285)" fill="none" stroke="#eaab00" stroke-linecap="round" stroke-miterlimit="10" stroke-width="4"/>
      <path id="Path_460" data-name="Path 460" d="M924.066,1711.826a11.978,11.978,0,1,0,14.515-19.032" transform="translate(-848.314 -1646.712)" fill="none" stroke="#eaab00" stroke-linecap="round" stroke-miterlimit="10" stroke-width="4"/>
    </g>
    <g id="Group_148" data-name="Group 148" transform="translate(1142.338 324.812)">
      <g id="Group_145" data-name="Group 145" transform="translate(90.931 3.172)">
        <line id="Line_90" data-name="Line 90" y2="2.115" transform="translate(5.815)" fill="none" stroke="#eaab00" stroke-linecap="round" stroke-miterlimit="10" stroke-width="4"/>
        <line id="Line_91" data-name="Line 91" y2="2.115" transform="translate(5.815 10.045)" fill="none" stroke="#eaab00" stroke-linecap="round" stroke-miterlimit="10" stroke-width="4"/>
        <line id="Line_92" data-name="Line 92" x2="2.115" transform="translate(0 6.344)" fill="none" stroke="#eaab00" stroke-linecap="round" stroke-miterlimit="10" stroke-width="4"/>
        <line id="Line_93" data-name="Line 93" x2="2.115" transform="translate(10.045 6.344)" fill="none" stroke="#eaab00" stroke-linecap="round" stroke-miterlimit="10" stroke-width="4"/>
      </g>
      <path id="Path_461" data-name="Path 461" d="M1561.947,766.556h5.9a6.788,6.788,0,0,1,6.788,6.787v44.05a6.788,6.788,0,0,1-6.788,6.788h-38.941l-16.239,15.354a.246.246,0,0,1-.415-.179V824.181l-14.2-.207a4.364,4.364,0,0,1-4.3-4.364V805.149" transform="translate(-1473.66 -741.709)" fill="none" stroke="#eaab00" stroke-linecap="round" stroke-miterlimit="10" stroke-width="4"/>
      <path id="Path_462" data-name="Path 462" d="M1536.635,726.344a6.787,6.787,0,0,0-6.788-6.788h-67.31a6.788,6.788,0,0,0-6.788,6.788v44.049a6.788,6.788,0,0,0,6.788,6.788h38.941l16.239,15.342a.245.245,0,0,0,.414-.178V777.181l15.334-.346a3.243,3.243,0,0,0,3.169-3.242Z" transform="translate(-1455.749 -719.556)" fill="none" stroke="#eaab00" stroke-linecap="round" stroke-miterlimit="10" stroke-width="4"/>
      <g id="Group_146" data-name="Group 146" transform="translate(31.72 11.536)">
        <path id="Path_463" data-name="Path 463" d="M1515.749,753.1v-3.267a8.459,8.459,0,0,1,8.458-8.459h0a8.459,8.459,0,0,1,8.459,8.459h0a6.326,6.326,0,0,1-2.793,5.249l-3.094,2.083a5.828,5.828,0,0,0-2.572,4.833v3.261" transform="translate(-1515.749 -741.377)" fill="none" stroke="#eaab00" stroke-linecap="round" stroke-miterlimit="10" stroke-width="4"/>
        <line id="Line_94" data-name="Line 94" y2="1.586" transform="translate(8.459 29.7)" fill="none" stroke="#eaab00" stroke-linecap="round" stroke-miterlimit="10" stroke-width="4"/>
      </g>
      <g id="Group_147" data-name="Group 147" transform="translate(26.962 108.377)">
        <line id="Line_95" data-name="Line 95" x2="2.115" fill="none" stroke="#eaab00" stroke-linecap="round" stroke-miterlimit="10" stroke-width="4"/>
        <line id="Line_96" data-name="Line 96" x2="2.115" transform="translate(11.102)" fill="none" stroke="#eaab00" stroke-linecap="round" stroke-miterlimit="10" stroke-width="4"/>
        <line id="Line_97" data-name="Line 97" x2="2.115" transform="translate(22.204)" fill="none" stroke="#eaab00" stroke-linecap="round" stroke-miterlimit="10" stroke-width="4"/>
        <line id="Line_98" data-name="Line 98" x2="1.586" transform="translate(33.306)" fill="none" stroke="#eaab00" stroke-linecap="round" stroke-miterlimit="10" stroke-width="4"/>
        <line id="Line_99" data-name="Line 99" x2="2.115" transform="translate(43.879)" fill="none" stroke="#eaab00" stroke-linecap="round" stroke-miterlimit="10" stroke-width="4"/>
      </g>
    </g>
    <g id="Group_149" data-name="Group 149" transform="translate(862.145 728.487)">
      <path id="Path_464" data-name="Path 464" d="M1366.194,1797.375l-20.84,8.006a5.2,5.2,0,0,1-3.732,0l-57.683-22.16a.3.3,0,0,1-.19-.275v-7.4a.294.294,0,0,1,.19-.276l57.694-22.013a5.207,5.207,0,0,1,3.71,0l57.694,22.013a.294.294,0,0,1,.19.276v7.4a.3.3,0,0,1-.189.275l-19.862,7.63" transform="translate(-1283.749 -1752.917)" fill="none" stroke="#eaab00" stroke-linecap="round" stroke-miterlimit="10" stroke-width="4"/>
      <path id="Path_465" data-name="Path 465" d="M1338.749,1850.065v21.67c0,4.483,13.847,8.117,30.927,8.117s30.927-3.634,30.927-8.117v-21.67" transform="translate(-1309.672 -1798.706)" fill="none" stroke="#eaab00" stroke-linecap="round" stroke-miterlimit="10" stroke-width="4"/>
      <path id="Path_466" data-name="Path 466" d="M1396.193,1803.708l45.759,21.056v12.456l2.943,1.461a3.269,3.269,0,0,1,1.815,2.928v5.275a3.007,3.007,0,0,1-3.006,3.007h-2.28" transform="translate(-1336.748 -1776.856)" fill="none" stroke="#eaab00" stroke-linecap="round" stroke-miterlimit="10" stroke-width="4"/>
    </g>
    <g id="Group_151" data-name="Group 151" transform="translate(1090.239 542.992)">
      <path id="Path_467" data-name="Path 467" d="M1129.142,1289.68h-60.507a1.346,1.346,0,0,1-1.347-1.346v-70.262a1.347,1.347,0,0,1,1.347-1.347h105.683a1.346,1.346,0,0,1,1.347,1.347v70.262a1.346,1.346,0,0,1-1.347,1.346h-10.284" transform="translate(-1067.288 -1216.724)" fill="none" stroke="#eaab00" stroke-linecap="round" stroke-miterlimit="10" stroke-width="4"/>
      <path id="Path_468" data-name="Path 468" d="M1174.875,1260.228V1248.09a1.169,1.169,0,0,0-.995-1.155l-.183-.031a5.584,5.584,0,0,1-4.567-4.208h0a1.214,1.214,0,0,0-1.189-.971H1098.6a1.177,1.177,0,0,0-1.149.956c-.007.037-.015.073-.023.11a5.732,5.732,0,0,1-5.724,4.221h-.108a1.3,1.3,0,0,0-1.306,1.3v32.914a1.258,1.258,0,0,0,1.045,1.233l.141.026a5.888,5.888,0,0,1,4.573,4.562c.01.052.021.105.03.158a1.254,1.254,0,0,0,1.232,1.042h36.33" transform="translate(-1078.129 -1228.507)" fill="none" stroke="#eaab00" stroke-linecap="round" stroke-miterlimit="10" stroke-width="4"/>
      <g id="Group_150" data-name="Group 150" transform="translate(58.436 31.978)">
        <path id="Path_469" data-name="Path 469" d="M1217.178,1304.268a9.394,9.394,0,1,1-8.647-5.732" transform="translate(-1187.873 -1287.263)" fill="none" stroke="#eaab00" stroke-linecap="round" stroke-miterlimit="10" stroke-width="4"/>
        <path id="Path_470" data-name="Path 470" d="M1219.138,1297.87c0,2.572-3.767,4.376-4.694,6.612-.961,2.318.391,6.248-1.356,8s-5.678.4-8,1.356c-2.235.927-4.04,4.694-6.611,4.694s-4.375-3.766-6.611-4.694c-2.318-.961-6.248.391-8-1.357s-.4-5.677-1.357-8c-.927-2.236-4.694-4.039-4.694-6.611s3.767-4.375,4.694-6.612c.962-2.318-.39-6.249,1.357-8s5.678-.4,8-1.356c2.236-.927,4.041-4.694,6.611-4.694s4.376,3.767,6.611,4.694c2.318.961,6.249-.39,8,1.356s.4,5.678,1.356,8C1215.371,1293.495,1219.138,1295.3,1219.138,1297.87Z" transform="translate(-1177.823 -1277.213)" fill="none" stroke="#eaab00" stroke-linecap="round" stroke-miterlimit="10" stroke-width="4"/>
        <path id="Path_471" data-name="Path 471" d="M1218.32,1354.724v9.795a.257.257,0,0,1-.377.227l-9.148-4.829-9.129,4.829a.257.257,0,0,1-.377-.227v-9.795" transform="translate(-1187.94 -1313.747)" fill="none" stroke="#eaab00" stroke-linecap="round" stroke-miterlimit="10" stroke-width="4"/>
      </g>
      <line id="Line_100" data-name="Line 100" x2="16.389" transform="translate(45.466 24.319)" fill="none" stroke="#eaab00" stroke-linecap="round" stroke-miterlimit="10" stroke-width="4"/>
      <line id="Line_101" data-name="Line 101" x2="39.121" transform="translate(20.09 34.892)" fill="none" stroke="#eaab00" stroke-linecap="round" stroke-miterlimit="10" stroke-width="4"/>
      <line id="Line_102" data-name="Line 102" x2="22.733" transform="translate(32.778 45.465)" fill="none" stroke="#eaab00" stroke-linecap="round" stroke-miterlimit="10" stroke-width="4"/>
    </g>
    <g id="Group_153" data-name="Group 153" transform="translate(1044.245 767.277)">
      <g id="Group_152" data-name="Group 152" transform="translate(5.287 0)">
        <path id="Path_472" data-name="Path 472" d="M1658.978,2113.548h-.6a.988.988,0,0,0-.987.988v54.052a.47.47,0,0,0,.471.47h26.278a14.15,14.15,0,0,1,6.994,1.85l3.252,1.85h8.525l3.252-1.85a14.151,14.151,0,0,1,6.994-1.85h25.718a.987.987,0,0,0,.988-.987v-53.535a.988.988,0,0,0-.988-.988h-.6" transform="translate(-1657.392 -2107.204)" fill="none" stroke="#eaab00" stroke-linecap="round" stroke-miterlimit="10" stroke-width="4"/>
        <path id="Path_473" data-name="Path 473" d="M1703.7,2113.846a11.769,11.769,0,0,0-2.075-6.674h0a11.768,11.768,0,0,0-9.693-5.094H1669.24a.847.847,0,0,0-.847.848v54.244a.418.418,0,0,0,.418.418h27.809a3.17,3.17,0,0,1,2.575,1.321l.948,1.323h7.316l.948-1.323a3.169,3.169,0,0,1,2.575-1.321h27.4a.847.847,0,0,0,.847-.847V2102.4a.848.848,0,0,0-.847-.848h-22.977a11.768,11.768,0,0,0-9.693,5.095h0a11.77,11.77,0,0,0-2.075,6.674" transform="translate(-1662.577 -2101.548)" fill="none" stroke="#eaab00" stroke-linecap="round" stroke-miterlimit="10" stroke-width="4"/>
      </g>
      <path id="Path_474" data-name="Path 474" d="M1726.392,2161.814v-15.579a1.144,1.144,0,0,1,1.712-.993l13.644,7.789a1.145,1.145,0,0,1,0,1.988l-13.644,7.789A1.145,1.145,0,0,1,1726.392,2161.814Z" transform="translate(-1684.627 -2122.071)" fill="none" stroke="#eaab00" stroke-linecap="round" stroke-miterlimit="10" stroke-width="4"/>
      <line id="Line_103" data-name="Line 103" x2="1.586" transform="translate(11.102 89.345)" fill="none" stroke="#eaab00" stroke-linecap="round" stroke-miterlimit="10" stroke-width="4"/>
      <line id="Line_104" data-name="Line 104" x2="1.586" transform="translate(20.618 89.345)" fill="none" stroke="#eaab00" stroke-linecap="round" stroke-miterlimit="10" stroke-width="4"/>
      <line id="Line_105" data-name="Line 105" x2="1.057" transform="translate(30.663 89.345)" fill="none" stroke="#eaab00" stroke-linecap="round" stroke-miterlimit="10" stroke-width="4"/>
      <line id="Line_106" data-name="Line 106" x2="1.586" transform="translate(40.179 89.345)" fill="none" stroke="#eaab00" stroke-linecap="round" stroke-miterlimit="10" stroke-width="4"/>
      <line id="Line_107" data-name="Line 107" x2="1.586" transform="translate(49.695 89.345)" fill="none" stroke="#eaab00" stroke-linecap="round" stroke-miterlimit="10" stroke-width="4"/>
      <line id="Line_108" data-name="Line 108" x2="1.586" transform="translate(59.739 89.345)" fill="none" stroke="#eaab00" stroke-linecap="round" stroke-miterlimit="10" stroke-width="4"/>
      <line id="Line_109" data-name="Line 109" x2="1.586" transform="translate(69.255 89.345)" fill="none" stroke="#eaab00" stroke-linecap="round" stroke-miterlimit="10" stroke-width="4"/>
      <line id="Line_110" data-name="Line 110" x2="1.586" transform="translate(78.771 89.345)" fill="none" stroke="#eaab00" stroke-linecap="round" stroke-miterlimit="10" stroke-width="4"/>
      <line id="Line_111" data-name="Line 111" x2="1.586" transform="translate(11.102 97.275)" fill="none" stroke="#eaab00" stroke-linecap="round" stroke-miterlimit="10" stroke-width="4"/>
      <line id="Line_112" data-name="Line 112" x2="1.586" transform="translate(20.618 97.275)" fill="none" stroke="#eaab00" stroke-linecap="round" stroke-miterlimit="10" stroke-width="4"/>
      <line id="Line_113" data-name="Line 113" x2="1.057" transform="translate(30.663 97.275)" fill="none" stroke="#eaab00" stroke-linecap="round" stroke-miterlimit="10" stroke-width="4"/>
      <line id="Line_114" data-name="Line 114" x2="1.586" transform="translate(40.179 97.275)" fill="none" stroke="#eaab00" stroke-linecap="round" stroke-miterlimit="10" stroke-width="4"/>
      <line id="Line_115" data-name="Line 115" x2="1.586" transform="translate(49.695 97.275)" fill="none" stroke="#eaab00" stroke-linecap="round" stroke-miterlimit="10" stroke-width="4"/>
      <line id="Line_116" data-name="Line 116" x2="1.586" transform="translate(59.739 97.275)" fill="none" stroke="#eaab00" stroke-linecap="round" stroke-miterlimit="10" stroke-width="4"/>
      <line id="Line_117" data-name="Line 117" x2="1.586" transform="translate(69.255 97.275)" fill="none" stroke="#eaab00" stroke-linecap="round" stroke-miterlimit="10" stroke-width="4"/>
      <line id="Line_118" data-name="Line 118" x2="1.586" transform="translate(78.771 97.275)" fill="none" stroke="#eaab00" stroke-linecap="round" stroke-miterlimit="10" stroke-width="4"/>
      <line id="Line_119" data-name="Line 119" x2="1.586" transform="translate(11.102 105.733)" fill="none" stroke="#eaab00" stroke-linecap="round" stroke-miterlimit="10" stroke-width="4"/>
      <line id="Line_120" data-name="Line 120" x2="1.586" transform="translate(20.618 105.733)" fill="none" stroke="#eaab00" stroke-linecap="round" stroke-miterlimit="10" stroke-width="4"/>
      <line id="Line_121" data-name="Line 121" x2="30.663" transform="translate(30.663 105.733)" fill="none" stroke="#eaab00" stroke-linecap="round" stroke-miterlimit="10" stroke-width="4"/>
      <line id="Line_122" data-name="Line 122" x2="1.586" transform="translate(69.255 105.733)" fill="none" stroke="#eaab00" stroke-linecap="round" stroke-miterlimit="10" stroke-width="4"/>
      <line id="Line_123" data-name="Line 123" x2="1.586" transform="translate(78.771 105.733)" fill="none" stroke="#eaab00" stroke-linecap="round" stroke-miterlimit="10" stroke-width="4"/>
      <path id="Path_475" data-name="Path 475" d="M1701.316,2246.064h34.945a3.119,3.119,0,0,1,3.119,3.119v26.541a3.119,3.119,0,0,1-3.119,3.118H1650.51a3.118,3.118,0,0,1-3.118-3.118v-26.541a3.118,3.118,0,0,1,3.118-3.119h35.216a7.661,7.661,0,0,0,7.66-7.542l.055-1.974" transform="translate(-1647.392 -2165.178)" fill="none" stroke="#eaab00" stroke-linecap="round" stroke-miterlimit="10" stroke-width="4"/>
    </g>
    <g id="Group_156" data-name="Group 156" transform="translate(824.057 481)">
      <g id="Group_154" data-name="Group 154" transform="translate(91.375 16.389)">
        <line id="Line_124" data-name="Line 124" y2="2.643" transform="translate(6.873)" fill="none" stroke="#eaab00" stroke-linecap="round" stroke-miterlimit="10" stroke-width="4"/>
        <line id="Line_125" data-name="Line 125" y2="2.115" transform="translate(6.873 13.217)" fill="none" stroke="#eaab00" stroke-linecap="round" stroke-miterlimit="10" stroke-width="4"/>
        <line id="Line_126" data-name="Line 126" x1="2.643" transform="translate(11.631 7.93)" fill="none" stroke="#eaab00" stroke-linecap="round" stroke-miterlimit="10" stroke-width="4"/>
        <line id="Line_127" data-name="Line 127" x1="2.115" transform="translate(0 7.93)" fill="none" stroke="#eaab00" stroke-linecap="round" stroke-miterlimit="10" stroke-width="4"/>
      </g>
      <g id="Group_155" data-name="Group 155" transform="translate(31.107)">
        <path id="Path_476" data-name="Path 476" d="M746.606,1052.337l.576-7.178a5.447,5.447,0,0,0,3.661-3.906l.2-.81a3.582,3.582,0,0,0-3.127-4.4l.779-8.167" transform="translate(-701.865 -1005.307)" fill="none" stroke="#eaab00" stroke-linecap="round" stroke-miterlimit="10" stroke-width="4"/>
        <path id="Path_477" data-name="Path 477" d="M667.357,1053.18a5.458,5.458,0,0,0,4.4,4.095l.559,6.975" transform="translate(-664.513 -1017.234)" fill="none" stroke="#eaab00" stroke-linecap="round" stroke-miterlimit="10" stroke-width="4"/>
        <path id="Path_478" data-name="Path 478" d="M714.844,985.946v8.009a8.677,8.677,0,0,1-8.677,8.677H672.13a4.338,4.338,0,0,0-4.338,4.338v8.012a.867.867,0,0,1-.867.867h-4.082a.869.869,0,0,1-.866-.867V996.317c1.006-3.028,3.851-2.939,5.22-2.7a.688.688,0,0,0,.792-.648,8.58,8.58,0,0,1,8.521-7.779h37.574A.759.759,0,0,1,714.844,985.946Z" transform="translate(-661.977 -985.187)" fill="none" stroke="#eaab00" stroke-linecap="round" stroke-miterlimit="10" stroke-width="4"/>
      </g>
      <path id="Path_479" data-name="Path 479" d="M699.3,1142.34H618.919a2.915,2.915,0,0,1-2.843-2.272l-12.891-53.335a2.1,2.1,0,0,1,2.047-2.546h107.75a2.1,2.1,0,0,1,2.047,2.546l-12.89,53.335A2.915,2.915,0,0,1,699.3,1142.34Z" transform="translate(-603.136 -1031.849)" fill="none" stroke="#eaab00" stroke-linecap="round" stroke-miterlimit="10" stroke-width="4"/>
      <path id="Path_480" data-name="Path 480" d="M705.721,1133.187h-5.406a1.133,1.133,0,0,0-.982.567l-2.7,4.682a1.134,1.134,0,0,0,0,1.134l2.7,4.681a1.135,1.135,0,0,0,.982.567h5.406a1.136,1.136,0,0,0,.982-.567l2.7-4.681a1.134,1.134,0,0,0,0-1.134l-2.7-4.682A1.134,1.134,0,0,0,705.721,1133.187Z" transform="translate(-647.132 -1054.945)" fill="none" stroke="#eaab00" stroke-linecap="round" stroke-miterlimit="10" stroke-width="4"/>
      <line id="Line_128" data-name="Line 128" x2="2.115" transform="translate(48.553 35.949)" fill="none" stroke="#eaab00" stroke-linecap="round" stroke-miterlimit="10" stroke-width="4"/>
      <line id="Line_129" data-name="Line 129" x2="2.643" transform="translate(63.885 35.949)" fill="none" stroke="#eaab00" stroke-linecap="round" stroke-miterlimit="10" stroke-width="4"/>
      <line id="Line_130" data-name="Line 130" y2="5.815" transform="translate(57.541 41.236)" fill="none" stroke="#eaab00" stroke-linecap="round" stroke-miterlimit="10" stroke-width="4"/>
    </g>
  </g>
</svg>
