<svg xmlns="http://www.w3.org/2000/svg" xmlns:xlink="http://www.w3.org/1999/xlink" width="951" height="497" viewBox="0 0 951 497">
  <defs>
    <clipPath id="clip-path">
      <rect id="Rectangle_14" data-name="Rectangle 14" width="951" height="497" transform="translate(-0.006 0.137)" fill="#fff"/>
    </clipPath>
  </defs>
  <g id="cycling" transform="translate(0.006 -0.137)" clip-path="url(#clip-path)">
    <path id="Path_22" data-name="Path 22" d="M650.671,383.539s-2.284,6.708-2.138,8.675,9.919-1.882,9.919-1.882a33.845,33.845,0,0,1,1.49-4.173A8.474,8.474,0,0,0,650.671,383.539Z" transform="translate(-48 -28.35)" fill="#eea987" fill-rule="evenodd"/>
    <path id="Path_23" data-name="Path 23" d="M646.738,30.4s19.368.058,23.478,20.768c7.513,37.865-8.5,52.191-7.005,60.935s.4,8.847.4,8.847l-9.845-13.56S625.433,54.14,646.738,30.4Z" transform="translate(-47.28 -2.249)" fill="#262626" fill-rule="evenodd"/>
    <path id="Path_24" data-name="Path 24" d="M658.753,105.227s25.494,9.3,29.263,31.234l-9.443,3.334S643.961,106.408,658.753,105.227Z" transform="translate(-48.484 -7.788)" fill="#e8734d" fill-rule="evenodd"/>
    <path id="Path_25" data-name="Path 25" d="M644.419,30.4s-25.768,1.52-24.657,32.823-14.286,44.465-12.069,55.316,14.525,10.178,20.883,2.833,1.039-9.391,6.86-13.8,6.791-17.62,2.278-25.211S626.53,68.5,644.419,30.4Z" transform="translate(-44.961 -2.249)" fill="#262625" fill-rule="evenodd"/>
    <path id="Path_26" data-name="Path 26" d="M524.327,221.007s1.576,30.564-10.945,65.526-22.3,57.9-25.055,66.963-22.434,65.59-22.434,65.59l-9.353-5.015s9.928-62.755,9.405-75.4c-.531-12.834,15.288-37.863,14.542-43.775s-1.587-84.306-.123-95.03S524.327,221.007,524.327,221.007Z" transform="translate(-33.79 -14.629)" fill="#eea987" fill-rule="evenodd"/>
    <path id="Path_27" data-name="Path 27" d="M636.6,429.476l14.885-18.949,1.16.9-14.885,18.955Z" transform="translate(-47.117 -30.384)" fill="#73a5f5" fill-rule="evenodd"/>
    <path id="Path_28" data-name="Path 28" d="M666.831,411.991l-28.047.031-.005-3.225,28.053-.037Z" transform="translate(-47.278 -30.253)" fill="#73a5f5" fill-rule="evenodd"/>
    <path id="Path_29" data-name="Path 29" d="M642.674,228.115s31.437,20.812,38.418,27.087,23.411,22.4,23.7,24.912,2.157,6.442-5.082,18.041-20.5,33.287-22.446,37.166c-4.086,8.167-21.512,38.351-21.512,38.351l-20.871-6.31s19.594-31.583,29.965-57.276c2.736-6.775,8.851-16.144,6.756-19.074s-23.235-13.336-70.119-39.106c-4.685-2.574-8.294,2.927-7.61-3.916s.231-31.138,14.169-36.322S642.674,228.115,642.674,228.115Z" transform="translate(-43.948 -15.606)" fill="#3c4169" fill-rule="evenodd"/>
    <path id="Path_30" data-name="Path 30" d="M687.793,132.967s10.444,37.516,13.382,41.55,38.772-1.47,38.772-1.47l-1.783,10.15s-46.81,6.718-48.5,4.477-16.4-46.874-16.4-46.874Z" transform="translate(-49.831 -9.841)" fill="#e8734d" fill-rule="evenodd"/>
    <path id="Path_31" data-name="Path 31" d="M562.721,129.39s30.478,26.343,34.845,28.784,53.975,25.549,53.975,25.549l-6.327,7.915s-53.822-19.187-56.3-20.52-37.227-28.024-37.227-28.024Z" transform="translate(-40.832 -9.576)" fill="#d9997a" fill-rule="evenodd"/>
    <path id="Path_32" data-name="Path 32" d="M938.086,291.513l-1.344-1.645v0Zm1.344,1.649-2.687-3.3c.189-.157,13.37-11.089,14.121-22.768a15.2,15.2,0,0,0-4.569-11.857c-3.6-3.826-7.776-5.788-12.4-5.832-10.829-.1-20.913,10.079-21.017,10.182l-.086.085L900.12,271.227l-2.864-3.143,12.618-11.512c.9-.91,11.55-11.4,23.827-11.418h.214c5.833.051,11.043,2.461,15.477,7.17a19.477,19.477,0,0,1,5.717,15.063C954.224,280.944,940.035,292.67,939.43,293.162Z" transform="translate(-66.409 -18.144)" fill="#eddad3" fill-rule="evenodd"/>
    <path id="Path_33" data-name="Path 33" d="M808.706,456.868l-28.352.036-.006-3.261,28.358-.037Z" transform="translate(-57.756 -33.572)" fill="#73a5f5" fill-rule="evenodd"/>
    <path id="Path_34" data-name="Path 34" d="M801.6,423.267l.788,8.515-21.036,1.582-1.41-10.073Z" transform="translate(-57.726 -31.327)" fill="#333859" fill-rule="evenodd"/>
    <path id="Path_35" data-name="Path 35" d="M921.963,238.015s3.518,1.547,5.161,1.464,11.716-1.1,13.029.63,10.994,11.481,9.68,12.96-2.29.741-2.949,0-8.118-7.008-9.022-7.107c0,0,6.646,7.438,5.5,9.655s-3.195,1.808-4.422,2.22-3.274,1.973-5.486.992-10.664-10.159-12.717-11.47-7.463-3.354-7.543-3.847S921.963,238.015,921.963,238.015Z" transform="translate(-67.589 -17.616)" fill="#eea886" fill-rule="evenodd"/>
    <path id="Path_36" data-name="Path 36" d="M870.617,94a5.766,5.766,0,0,0-1.771,1.256,30.93,30.93,0,0,0-2.174,2.24c-4.416,4.909-10.366,13.21-10.366,13.21S843.583,84.6,846.943,84.827s7.708-3.765,7.708-3.765S873.615,93.056,870.617,94Z" transform="translate(-62.643 -5.999)" fill="#eea886" fill-rule="evenodd"/>
    <path id="Path_37" data-name="Path 37" d="M846.988,85.059l3.438-.853,9.413,22.013-2.1,7.329Z" transform="translate(-62.688 -6.232)" fill="#eddcc5" fill-rule="evenodd"/>
    <path id="Path_38" data-name="Path 38" d="M837.175,157.639s-30.716,24.14-36.757,35.652-32.78-19.237-32.78-19.237Z" transform="translate(-56.816 -11.667)" fill="#eddcc5" fill-rule="evenodd"/>
    <path id="Path_39" data-name="Path 39" d="M800.509,194.1l-.946,3.113-1.16,4.146v0s0,0-.007,0c-.489-.26-32.017-16.906-34.637-17.367-2.645-.461,7.91-5.64,7.91-5.64Z" transform="translate(-56.497 -13.199)" fill="#323657" fill-rule="evenodd"/>
    <path id="Path_40" data-name="Path 40" d="M785.2,245.173s3.647,59.072,3.964,63.275,1.582,23.47.965,26.579,10.035,73.379,10.035,73.379l-25.94,1.685s-10.891-72.437-12.918-81.918-23.79-95.843-23.954-103S785.2,245.173,785.2,245.173Z" transform="translate(-54.574 -16.577)" fill="#272a45" fill-rule="evenodd"/>
    <path id="Path_41" data-name="Path 41" d="M897.566,51.781s1.417,13.834-1.374,16.169,2.034,13.214.018,14.15-5.589,1.561-5.741,2.028-8.991,13.693-12.253,12.609-24.078-11.784-22.85-19.249,2.609-24.413,2.609-27.678S879.689,31.125,897.566,51.781Z" transform="translate(-63.305 -3.05)" fill="#eea886" fill-rule="evenodd"/>
    <path id="Path_42" data-name="Path 42" d="M923.329,234.3l1.551,1.938-11.764,8.885-2.925-3.423Z" transform="translate(-67.366 -17.34)" fill="#eddcc5" fill-rule="evenodd"/>
    <path id="Path_43" data-name="Path 43" d="M792.943,380.08l-5.76,6.023s-13.761-12.418-13.761-12.657,4.886-6.768,4.886-6.768Z" transform="translate(-57.244 -27.138)" fill="#3d436b" fill-rule="evenodd"/>
    <path id="Path_44" data-name="Path 44" d="M802.172,430.878s6.145,6.652,8.313,7.2,13.23,4.923,17.963,5.076,8.832,1.613,7.9,6.353-38.657,2.81-38.657,2.81-1.862-1.943-2.718-1.632-1.471,1.919-1.471,1.919l-15.386-.232s-.831-12.89,3.195-19.114c0,0,14.958-2.523,16.119-3.146S802.172,430.878,802.172,430.878Z" transform="translate(-57.586 -31.821)" fill="#4d5485" fill-rule="evenodd"/>
    <path id="Path_45" data-name="Path 45" d="M872.132,37.467a25.83,25.83,0,0,0-6.218,2.176c-1.692.029-11.782.413-12.056,5.61-.373,6.993,1.753,27.149,1.783,29.169.006.271.214-.151.537-1.082,3.109-5.373,12.881-8.568,12.881-8.568l4.453-.006a11.875,11.875,0,0,1,1.954-7.468c6.212-2.6,22.3-1.175,22.3-1.175C904.717,35.376,884.573,34.744,872.132,37.467Z" transform="translate(-63.194 -2.687)" fill="#fcc53a" fill-rule="evenodd"/>
    <path id="Path_46" data-name="Path 46" d="M870.507,61.165c-.306-1.946-5.607-4.035-6.847.734s3.536,11.189,5.808,9.838S870.836,63.237,870.507,61.165Z" transform="translate(-63.908 -4.365)" fill="#eea886" fill-rule="evenodd"/>
    <path id="Path_47" data-name="Path 47" d="M793.709,451.613,788.732,432.5l1.435-.372,4.977,19.114Z" transform="translate(-58.377 -31.982)" fill="#73a5f5" fill-rule="evenodd"/>
    <path id="Path_48" data-name="Path 48" d="M780.679,419.457,731.841,240.2l4.1-1.118,48.838,179.26Z" transform="translate(-54.166 -17.694)" fill="#eddad3" fill-rule="evenodd"/>
    <path id="Path_49" data-name="Path 49" d="M785.948,413.045a18.2,18.2,0,1,0,3.323.306A18.172,18.172,0,0,0,785.948,413.045Zm.073,41.619a23.471,23.471,0,1,1,23.033-19.219A23.339,23.339,0,0,1,786.021,454.664Z" transform="translate(-56.437 -30.176)" fill="#5b83c2" fill-rule="evenodd"/>
    <path id="Path_50" data-name="Path 50" d="M719.281,227.7s-.91,13.554,11.715,15.023,35.267-.046,35.267-.046S733.934,220.255,719.281,227.7Z" transform="translate(-53.235 -16.74)" fill="#857e83" fill-rule="evenodd"/>
    <path id="Path_51" data-name="Path 51" d="M929.963,324.149a79.316,79.316,0,1,0,79.409,79.213A79.4,79.4,0,0,0,929.963,324.149Zm.207,162.885a83.33,83.33,0,1,1,32.519-6.61A83.013,83.013,0,0,1,930.171,487.033Z" transform="translate(-62.653 -23.676)" fill="#353a3d" fill-rule="evenodd"/>
    <path id="Path_52" data-name="Path 52" d="M930.317,328.839a74.973,74.973,0,1,0,75.05,74.875A75.052,75.052,0,0,0,930.317,328.839Zm.2,154.2a78.974,78.974,0,1,1,30.826-6.268A78.668,78.668,0,0,1,930.512,483.037Z" transform="translate(-63 -24.023)" fill="#e0e0e0" fill-rule="evenodd"/>
    <path id="Path_53" data-name="Path 53" d="M795.956,201.566s36.06,27.939,43.83,34.925,25.024,20.18,25.341,22.979,4.977,10.254-3.079,23.168-49.608,61.011-52.24,65.055-16.894,21.167-16.894,21.167l-20.516-16.3s41.912-57.891,47.146-64.115,8.49-13.848,6.157-17.11-19.1-6.661-71.308-35.356c-5.216-2.868-24.853-7.742-24.089-15.363s-.2-32.8,15.324-38.577S795.956,201.566,795.956,201.566Z" transform="translate(-54.051 -13.409)" fill="#323657" fill-rule="evenodd"/>
    <path id="Path_54" data-name="Path 54" d="M836.108,85.127s10.755,24.836,11.69,29.5-4.367,36.326-9.266,38.1S794.19,172.9,778.67,179.293s-52.577,27.557-57.866,24.143-21.982-30.313-20.749-35.6c0,0,3.1-2.025,13.193-2.659s53.071-25.1,56.479-31.013S809.563,84.2,836.108,85.127Z" transform="translate(-51.809 -6.299)" fill="#3c4169" fill-rule="evenodd"/>
    <path id="Path_55" data-name="Path 55" d="M849.08,103.8s4.557,11.4,6.957,19.379c2.315,7.709,12.307,31.7,13.242,33.565s16.021,26.1,17.737,28.9,29.391,37.275,30.014,37.43S904.155,233.2,904.155,233.2s-33.9-40.381-35.926-44.109-24.26-30.908-27.369-36.347-19.4-31.041-21.011-35.421c-1.79-4.895-7.244-17.17,7.891-24.265C840.658,87,846.979,100.075,849.08,103.8Z" transform="translate(-60.499 -6.77)" fill="#3c4169" fill-rule="evenodd"/>
    <path id="Path_56" data-name="Path 56" d="M785.256,430.988l-6.108-22.774,1.435-.385,6.108,22.774Z" transform="translate(-57.667 -30.184)" fill="#73a5f5" fill-rule="evenodd"/>
    <path id="Path_57" data-name="Path 57" d="M790.651,418.617l-22.123-17.74,2.04-2.541,22.123,17.734Z" transform="translate(-56.881 -29.481)" fill="#73a5f5" fill-rule="evenodd"/>
    <path id="Path_58" data-name="Path 58" d="M772.356,373.986s11.892,8.07,12.827,9.157a5.761,5.761,0,0,0,2.907,1.436s1.02,5.87,1.491,7.342,10.3,15.223,11.623,15.614,10.463,5.92,8.71,9.451-9.962.917-15.141-1.564-22.746-16.139-24.322-18.522l-.654-1.87s-2.174-.2-3-.306-7.776-6.31-7.776-6.31S766.243,378.006,772.356,373.986Z" transform="translate(-56.178 -27.679)" fill="#545c91" fill-rule="evenodd"/>
    <path id="Path_59" data-name="Path 59" d="M791.216,433.444a3.717,3.717,0,1,1-2.981-4.324A3.717,3.717,0,0,1,791.216,433.444Z" transform="translate(-58.015 -31.755)" fill="#5b83c2" fill-rule="evenodd"/>
    <path id="Path_60" data-name="Path 60" d="M931.638,400.1,895.449,267.964l4.1-1.123,36.188,132.135Z" transform="translate(-66.275 -19.749)" fill="#eddad3" fill-rule="evenodd"/>
    <path id="Path_61" data-name="Path 61" d="M901.2,270.5l-7.684.01-.006-3.976,7.684-.011Z" transform="translate(-66.132 -19.726)" fill="#eddad3" fill-rule="evenodd"/>
    <path id="Path_62" data-name="Path 62" d="M941.9,409.69a5.6,5.6,0,1,1-5.613-5.6A5.6,5.6,0,0,1,941.9,409.69Z" transform="translate(-68.884 -29.907)" fill="#5b83c2" fill-rule="evenodd"/>
    <path id="Path_63" data-name="Path 63" d="M320.541,326.428a78.73,78.73,0,1,0,78.82,78.625A78.811,78.811,0,0,0,320.541,326.428Zm.209,161.681a82.663,82.663,0,1,1,32.276-6.561A82.449,82.449,0,0,1,320.75,488.109Z" transform="translate(-17.593 -23.847)" fill="#353a3d" fill-rule="evenodd"/>
    <path id="Path_64" data-name="Path 64" d="M320.892,331.085a74.414,74.414,0,1,0,74.5,74.32A74.5,74.5,0,0,0,320.892,331.085Zm.2,153.055a78.373,78.373,0,1,1,30.6-6.219A78.085,78.085,0,0,1,321.089,484.14Z" transform="translate(-17.938 -24.192)" fill="#e0e0e0" fill-rule="evenodd"/>
    <path id="Path_65" data-name="Path 65" d="M633.206,422.875l-40.251-147.4,4.074-1.11,40.244,147.4Z" transform="translate(-43.887 -20.306)" fill="#eddad3" fill-rule="evenodd"/>
    <path id="Path_66" data-name="Path 66" d="M463.335,423.093,423.091,275.7l4.073-1.111,40.244,147.4Z" transform="translate(-31.314 -20.322)" fill="#eddad3" fill-rule="evenodd"/>
    <path id="Path_67" data-name="Path 67" d="M719.311,186.1s4.385-1.583,5.479-2.774,7.751-7.175,9.864-6.868,15.2-.314,15.373,1.622c.092,1.04-1.026,1.195-2,1.132s-10.529.694-11.232,1.245c0,0,9.8.627,10.524,2.971s-.989,3.472-1.57,4.61-.934,3.645-3.164,4.485-13.767,1.224-16.106,1.721-8.429,1.657-8.826,1.37S719.311,186.1,719.311,186.1Z" transform="translate(-53.112 -13.059)" fill="#eea886" fill-rule="evenodd"/>
    <path id="Path_68" data-name="Path 68" d="M422.118,290.03,330.929,400.7l173.7,20.214,247.886-.953L860.9,295.573l-2.456-7.82ZM322.979,403.9l97.2-117.963.958-.006,440.317-2.3,4.043,12.9-.751.865L754.388,424.056,504.272,425Z" transform="translate(-23.905 -20.992)" fill="#eddad3" fill-rule="evenodd"/>
    <path id="Path_69" data-name="Path 69" d="M658.76,389.384s6.487,5.584,10.4,5.742,15.635,2.676,16.21,4.735,4.751,7.189-17.5,7.6c-21.97.4-23.864-.14-23.375-4.166s2.071-9.536,2.883-13.464Z" transform="translate(-47.697 -28.819)" fill="#e8734d" fill-rule="evenodd"/>
    <path id="Path_70" data-name="Path 70" d="M563.325,260.244s-.9,13.409,11.587,14.863,34.894-.046,34.894-.046S577.825,252.879,563.325,260.244Z" transform="translate(-41.692 -19.15)" fill="#857e83" fill-rule="evenodd"/>
    <path id="Path_71" data-name="Path 71" d="M655.164,105.715s18.214,9.955,20.626,14.416c4.373,8.079,5.943,24.053,5.875,26.891-.219,9.461-11.006,11.719-10.932,14.489s-7.648,17.025-9.406,24.6-17.267,27.571-17.267,27.571-29.532,9.736-41.936-19.274c0,0,11.153-21,11.842-31.483,2.009-30.371,4.52-34.569,6.78-38.925,4.2-8.091,15.7-16.732,17.584-18.388S655.164,105.715,655.164,105.715Z" transform="translate(-44.565 -7.763)" fill="#eddcc5" fill-rule="evenodd"/>
    <path id="Path_72" data-name="Path 72" d="M630.6,118.505c3.647-3.151,16.613-4.076,20.688,13.057s17.022,51.576,19.234,54.706,41.832-5.093,41.832-5.093l1.344,13.6s-52.411,11.9-55,7.114-30.051-54.818-30.24-58.134S621.4,126.449,630.6,118.505Z" transform="translate(-46.319 -8.635)" fill="#e8734d" fill-rule="evenodd"/>
    <path id="Path_73" data-name="Path 73" d="M659.422,120.458c-8.251,1.517-16.509-6.345-18.378-16.411,0,0-.978-13.844-2.211-19.107s17.486,9.671,17.486,9.671.013.363.044.943c.043.75.116,1.863.219,3.033.2,2.08.513,4.352,1.026,5.171l2.364,1.87S667.668,118.943,659.422,120.458Z" transform="translate(-47.278 -6.203)" fill="#eea987" fill-rule="evenodd"/>
    <path id="Path_74" data-name="Path 74" d="M625.691,449.677l12.143-15.308,1.155.917-12.149,15.308Z" transform="translate(-46.31 -32.148)" fill="#73a5f5" fill-rule="evenodd"/>
    <path id="Path_75" data-name="Path 75" d="M636.278,413.722a17.974,17.974,0,1,0,3.286.3A18.289,18.289,0,0,0,636.278,413.722Zm.068,41.173a22.915,22.915,0,0,1-4.245-.385,23.211,23.211,0,1,1,4.245.385Z" transform="translate(-45.377 -30.231)" fill="#5b83c2" fill-rule="evenodd"/>
    <path id="Path_76" data-name="Path 76" d="M641.486,433.91a3.677,3.677,0,1,1-2.95-4.283A3.677,3.677,0,0,1,641.486,433.91Z" transform="translate(-46.939 -31.793)" fill="#eddad3" fill-rule="evenodd"/>
    <path id="Path_77" data-name="Path 77" d="M630.944,262.559s1.07,36.211,1.18,41.618c.121,5.9.262,27.252-.269,29.933s-4.135,80.428-4.135,80.428l-23.638-4.057s-.3-61.826,0-70.244c.562-15.9-18.922-88.767-19.062-94.937S630.944,262.559,630.944,262.559Z" transform="translate(-43.299 -18.078)" fill="#3c4169" fill-rule="evenodd"/>
    <path id="Path_78" data-name="Path 78" d="M630.218,427.991l.08,5.113-10.549-.367-.983-6.713Z" transform="translate(-45.797 -31.531)" fill="#eea987" fill-rule="evenodd"/>
    <path id="Path_79" data-name="Path 79" d="M630.028,430.556s6.486,5.584,10.4,5.736,15.642,2.67,16.216,4.728,4.758,7.184-17.493,7.605c-21.976.421-23.864-.116-23.381-4.148s2.071-9.536,2.877-13.464Z" transform="translate(-45.571 -31.866)" fill="#e8734d" fill-rule="evenodd"/>
    <path id="Path_80" data-name="Path 80" d="M642.982,219.612s8.44,12.284,31.37,30.433c0,0-69.153,28.382-79.389,29.006-1.5.091-6.206-11.087-10.408-19.641,0,0-15.795-18.978,4.606-44.014,6.9-8.466,11.232-13.84,11.232-13.84Z" transform="translate(-42.833 -14.917)" fill="#3c4169" fill-rule="evenodd"/>
    <path id="Path_81" data-name="Path 81" d="M640.449,453.92l-28.029-1.192.141-3.225,28.022,1.2Z" transform="translate(-45.327 -33.269)" fill="#73a5f5" fill-rule="evenodd"/>
    <path id="Path_82" data-name="Path 82" d="M663.919,45.522a58.573,58.573,0,0,1,4.7,32.9c-2.681,18.952-18.347,14.261-26.239,8.278S626.87,60.261,628.127,50.16,652.363,24.527,663.919,45.522Z" transform="translate(-46.48 -2.596)" fill="#eea886" fill-rule="evenodd"/>
    <path id="Path_83" data-name="Path 83" d="M653.524,45.6a33.494,33.494,0,0,1-21.6,24.81s-9.253-6.386-3.378-24.179,26.923-11.255,27.906-11.122S669.4,48.252,669.759,58.013s.1,10.4.1,10.4S664.97,51.335,653.524,45.6Z" transform="translate(-46.376 -2.503)" fill="#262625" fill-rule="evenodd"/>
    <path id="Path_84" data-name="Path 84" d="M394.012,259.609s-.9,13.454,11.626,14.911,35.007-.045,35.007-.045S408.556,252.219,394.012,259.609Z" transform="translate(-29.161 -19.103)" fill="#857e83" fill-rule="evenodd"/>
    <path id="Path_85" data-name="Path 85" d="M470.014,199.811s-17.361,10.929-26.218,23.514-37.657,42.018-53.553,44.442c-10.417,1.589-30.3,15.939-45.623,27.052a154.887,154.887,0,0,1-27.906,16.376l4.55,9.994s74.556-30.873,79.542-33.837,29-13.35,33.067-17.237,59.013-13.7,80.105-49.159S470.014,199.811,470.014,199.811Z" transform="translate(-23.441 -14.576)" fill="#eea987" fill-rule="evenodd"/>
    <path id="Path_86" data-name="Path 86" d="M466.415,434.687s3.81,7.7,7.366,9.377,13.4,8.583,13.131,10.709,1.584,8.5-19.137.183c-20.463-8.216-22-9.456-19.975-12.987s5.643-8,7.926-11.314Z" transform="translate(-33.094 -31.874)" fill="#eddad3" fill-rule="evenodd"/>
    <path id="Path_87" data-name="Path 87" d="M321.683,329.571s-3.621,10.574-2.174,14.563,3.731,16.794,1.9,18.21-5.259,7.715-14.8-14.441c-9.421-21.876-9.652-24-5.411-25.162s10.414-1.827,14.685-2.627Z" transform="translate(-22.097 -23.692)" fill="#eddad3" fill-rule="evenodd"/>
    <path id="Path_88" data-name="Path 88" d="M530.811,41.353s18.128,9.406,11.507,34-24,24.066-30.684,2.629S509.729,35.094,530.811,41.353Z" transform="translate(-37.66 -2.978)" fill="#eea987" fill-rule="evenodd"/>
    <path id="Path_89" data-name="Path 89" d="M527.911,107.714s15.074,7.838,17.206,12.272,9.528,26.279,9.2,29.108c-1.094,9.429-11.543,14.159-11.727,16.931s-.874,13.468-3.33,20.866-13.027,27.258-13.027,27.258-24.527.092-43.965-21.144c0,0,7.935-11.29,8.105-21.828s-3.423-36.642-1.908-45.664c1.558-9.264,18.277-18.7,20.309-20.178S527.911,107.714,527.911,107.714Z" transform="translate(-35.694 -7.77)" fill="#eb9928" fill-rule="evenodd"/>
    <path id="Path_90" data-name="Path 90" d="M521.005,221.036s4.355,36.293-9.082,77.539c0,0-43.278-15.659-53.08-18.79s-47.173-26.931-47.179-31.923c0,0,23.654-6.5,31.4-17.421s35.166-32.395,35.166-32.395Z" transform="translate(-30.469 -14.657)" fill="#46a4d4" fill-rule="evenodd"/>
    <path id="Path_91" data-name="Path 91" d="M531.343,107.931s17.384,4.584,30.674,18.443l-7.709,10.94S518.731,115.847,531.343,107.931Z" transform="translate(-39.126 -7.988)" fill="#eb9928" fill-rule="evenodd"/>
    <path id="Path_92" data-name="Path 92" d="M527.739,121.894c-8.38.749-15.909-7.869-16.848-18.1,0,0,3.111-13.163,2.372-18.539S527.458,97.2,527.458,97.2s-.2,1.528-.3,3.314c-.117,1.956-.134,4.21.317,5.112l2.554.554S536.12,121.146,527.739,121.894Z" transform="translate(-37.813 -6.233)" fill="#eea987" fill-rule="evenodd"/>
    <path id="Path_93" data-name="Path 93" d="M517.335,50.734S535.047,62.4,536.372,67.957c0,0,6.237-9.366-2.162-25.011S505.6,27.208,494.4,37.205,480.632,67.052,465.967,67.44,441.927,61.185,438.5,78.2s-22.672,2.741-26.476,16.058,13.228,31.414,37.363,15.36,28.462-2.194,37.8-2.207,20.629-.386,18.834-24.609S517.335,50.734,517.335,50.734Z" transform="translate(-30.456 -2.245)" fill="#c75656" fill-rule="evenodd"/>
    <path id="Path_94" data-name="Path 94" d="M474.316,461.908l-26.074-10.592,1.219-3,26.073,10.593Z" transform="translate(-33.176 -33.181)" fill="#73a5f5" fill-rule="evenodd"/>
    <path id="Path_95" data-name="Path 95" d="M462.359,452.743l6.554-18.479,1.393.494-6.554,18.479Z" transform="translate(-34.221 -32.141)" fill="#73a5f5" fill-rule="evenodd"/>
    <path id="Path_96" data-name="Path 96" d="M467.2,413.595a18.038,18.038,0,1,0,3.294.3A17.3,17.3,0,0,0,467.2,413.595Zm.07,41.308a23.293,23.293,0,1,1,4.181-46.2,23.294,23.294,0,0,1-4.181,46.2Z" transform="translate(-32.858 -30.22)" fill="#5b83c2" fill-rule="evenodd"/>
    <path id="Path_97" data-name="Path 97" d="M466.812,431.085l7.665-22.108,1.4.482-7.663,22.108Z" transform="translate(-34.55 -30.269)" fill="#73a5f5" fill-rule="evenodd"/>
    <path id="Path_98" data-name="Path 98" d="M488.25,412l-28.11-1.357.156-3.232,28.11,1.357Z" transform="translate(-34.057 -30.153)" fill="#73a5f5" fill-rule="evenodd"/>
    <path id="Path_99" data-name="Path 99" d="M472.429,433.843a3.689,3.689,0,1,1-2.959-4.295A3.693,3.693,0,0,1,472.429,433.843Z" transform="translate(-34.425 -31.787)" fill="#5b83c2" fill-rule="evenodd"/>
    <path id="Path_100" data-name="Path 100" d="M332.391,411.337a5.563,5.563,0,1,1-5.571-5.56A5.565,5.565,0,0,1,332.391,411.337Z" transform="translate(-23.778 -30.032)" fill="#5b83c2" fill-rule="evenodd"/>
    <path id="Path_101" data-name="Path 101" d="M527.836,97.638s-.2,1.528-.3,3.315C519.255,99.218,516.182,90.717,516,90.185,521.747,99.022,527.836,97.638,527.836,97.638Z" transform="translate(-38.191 -6.674)" fill="#a77860" fill-rule="evenodd"/>
    <path id="Path_102" data-name="Path 102" d="M656.994,99.15c-9.162-1.92-12.643-7.72-12.643-7.72,7.965,5.073,12.424,4.687,12.424,4.687C656.818,96.867,656.891,97.979,656.994,99.15Z" transform="translate(-47.691 -6.766)" fill="#a77860" fill-rule="evenodd"/>
    <path id="Path_103" data-name="Path 103" d="M869.844,95.814v.005a30.93,30.93,0,0,0-2.174,2.24l-.007-.006c-2.559-2.192-6.767-7.926-7.788-9.331C861.953,91.4,869.844,95.814,869.844,95.814Z" transform="translate(-63.642 -6.566)" fill="#a77860" fill-rule="evenodd"/>
    <path id="Path_104" data-name="Path 104" d="M634.6,105.663S649.129,120,648.28,139.827,632.008,204.6,618.864,215.3s-67.174,39.608-67.174,39.608.037-40.928,10.763-49.782,26.868-9.324,40.892-35.938S600.749,128.862,634.6,105.663Z" transform="translate(-40.832 -7.82)" fill="#e8734d" fill-rule="evenodd"/>
    <path id="Path_105" data-name="Path 105" d="M490.893,124.547c1.832-4.477,13.008-11.2,24.443,2.27S554,165.207,557.4,167s64.463,21.413,64.463,21.413l-2.987,8.847s-60.461-7.806-64.951-10.913-51.793-35.364-53.469-38.245S486.276,135.833,490.893,124.547Z" transform="translate(-36.257 -8.796)" fill="#eea987" fill-rule="evenodd"/>
    <path id="Path_106" data-name="Path 106" d="M505.767,155.893s16.448-21.119,18.891-22.364c0,0-19.073-26.469-33.419-10.326C491.239,123.2,481.5,136.859,505.767,155.893Z" transform="translate(-36.215 -8.732)" fill="#eb9928" fill-rule="evenodd"/>
    <path id="Path_107" data-name="Path 107" d="M622.911,191.867s4.648.343,6.132-.3,10.005-3.39,11.813-2.247,14.006,5.915,13.376,7.752c-.342.986-1.429.671-2.29.218s-9.9-3.661-10.762-3.443c0,0,8.691,4.567,8.4,7.005s-2.32,2.766-3.31,3.571-2.339,2.946-4.722,2.8-13.07-4.5-15.409-5-8.368-1.925-8.618-2.35S622.911,191.867,622.911,191.867Z" transform="translate(-45.704 -13.991)" fill="#eea886" fill-rule="evenodd"/>
    <path id="Path_108" data-name="Path 108" d="M659.113,105.351s14.738,21.733,17.121,36.9-15.307,52.2-15.557,54.542c0,0,15.745-37.128,17.975-38.786s8.911-.178,7.275-16.3C683.087,113.741,675.757,115.834,659.113,105.351Z" transform="translate(-48.783 -7.797)" fill="#e8734d" fill-rule="evenodd"/>
    <path id="Path_109" data-name="Path 109" d="M254.949,121.542,184.642,185.35s-24.615-11.937-10.906-26.441A168.672,168.672,0,0,1,195.25,140c19.336-14.451,39.318-24.09,45.835-25.24C250.151,113.166,254.949,121.542,254.949,121.542Z" transform="translate(-12.551 -8.478)" fill="#323657" fill-rule="evenodd"/>
    <path id="Path_110" data-name="Path 110" d="M215.381,159.437,185.052,189.5s-25.885-14.638-12.176-29.142c6.51-6.891,14.655-12.794,22.322-18.322Z" transform="translate(-12.499 -10.512)" fill="#73a5f5" fill-rule="evenodd"/>
    <path id="Path_111" data-name="Path 111" d="M363.131,327.615l-1.346-1.656h0Zm1.345,1.656-2.69-3.311c.192-.153,13.414-11.1,14.186-22.8a15.235,15.235,0,0,0-4.565-11.89c-3.61-3.842-7.792-5.814-12.428-5.864-10.857-.114-20.981,10.077-21.083,10.179l-.087.086L325.1,307.229l-2.87-3.154L334.9,292.552c.9-.912,11.591-11.415,23.9-11.415.071,0,.142,0,.213,0,5.849.056,11.066,2.482,15.507,7.205a19.542,19.542,0,0,1,5.712,15.107C379.318,317.04,365.082,328.775,364.475,329.271Z" transform="translate(-23.849 -20.807)" fill="#353a3d" fill-rule="evenodd"/>
    <path id="Path_112" data-name="Path 112" d="M204.808,493.2h28.42v-3.269h-28.42Z" transform="translate(-15.159 -36.261)" fill="#73a5f5" fill-rule="evenodd"/>
    <path id="Path_113" data-name="Path 113" d="M226.152,459.5l.776,8.54L205.839,469.6l-1.4-10.1Z" transform="translate(-15.131 -34.009)" fill="#333859" fill-rule="evenodd"/>
    <path id="Path_114" data-name="Path 114" d="M347.037,273.962s3.527,1.557,5.17,1.475,11.745-1.087,13.058.648,11.005,11.522,9.691,13-2.3.74-2.957,0-8.13-7.034-9.034-7.134c0,0,6.652,7.463,5.5,9.684s-3.2,1.809-4.435,2.221-3.284,1.974-5.5.987-10.678-10.2-12.73-11.515-7.474-3.371-7.556-3.865S347.037,273.962,347.037,273.962Z" transform="translate(-25.035 -20.276)" fill="#eea886" fill-rule="evenodd"/>
    <path id="Path_115" data-name="Path 115" d="M279.767,116.543s-4.37,4-7.732,3.768,9.348,25.949,9.348,25.949,11.361-15.794,14.37-16.728S279.767,116.543,279.767,116.543Z" transform="translate(-20.092 -8.625)" fill="#eea886" fill-rule="evenodd"/>
    <path id="Path_116" data-name="Path 116" d="M272.08,120.544l3.453-.85,9.4,22.077-2.1,7.346Z" transform="translate(-20.138 -8.858)" fill="#d4d4d4" fill-rule="evenodd"/>
    <path id="Path_117" data-name="Path 117" d="M262.147,193.292s-30.817,24.156-36.887,35.689-32.839-19.325-32.839-19.325Z" transform="translate(-14.242 -14.306)" fill="#eddcc5" fill-rule="evenodd"/>
    <path id="Path_118" data-name="Path 118" d="M225.348,229.782,224.4,232.9l-1.167,4.155h0l-.006,0c-.495-.263-32.076-16.987-34.7-17.452-2.646-.469,7.938-5.645,7.938-5.645Z" transform="translate(-13.922 -15.835)" fill="#323657" fill-rule="evenodd"/>
    <path id="Path_119" data-name="Path 119" d="M209.935,280.96s3.579,59.225,3.891,63.428,1.557,23.537.933,26.652,9.961,73.562,9.961,73.562l-26,1.662s-10.822-72.628-12.845-82.133S162.155,268.024,162,260.855,209.935,280.96,209.935,280.96Z" transform="translate(-11.99 -19.217)" fill="#272a45" fill-rule="evenodd"/>
    <path id="Path_120" data-name="Path 120" d="M322.824,87.252s1.4,13.872-1.4,16.209,2.023,13.247,0,14.182-5.6,1.558-5.759,2.026-9.026,13.715-12.3,12.624-24.124-11.845-22.879-19.325,2.646-24.469,2.646-27.742S304.925,66.523,322.824,87.252Z" transform="translate(-20.756 -5.671)" fill="#eea886" fill-rule="evenodd"/>
    <path id="Path_121" data-name="Path 121" d="M348.412,270.241l1.553,1.943-11.8,8.892-2.929-3.436Z" transform="translate(-24.812 -20.001)" fill="#d4d4d4" fill-rule="evenodd"/>
    <path id="Path_122" data-name="Path 122" d="M217.523,416.2l-5.781,6.03s-13.774-12.468-13.774-12.7,4.9-6.78,4.9-6.78Z" transform="translate(-14.652 -29.808)" fill="#3d436b" fill-rule="evenodd"/>
    <path id="Path_123" data-name="Path 123" d="M226.708,467.134s6.147,6.677,8.326,7.221,13.252,4.961,18,5.113,8.85,1.631,7.915,6.384-38.754,2.761-38.754,2.761-1.868-1.943-2.722-1.632-1.479,1.912-1.479,1.912l-15.422-.25s-.818-12.92,3.229-19.151c0,0,15-2.51,16.161-3.14S226.708,467.134,226.708,467.134Z" transform="translate(-14.988 -34.504)" fill="#4d5485" fill-rule="evenodd"/>
    <path id="Path_124" data-name="Path 124" d="M297.346,72.873a26.015,26.015,0,0,0-6.236,2.174c-1.7.026-11.809.4-12.094,5.609-.383,7.011,1.72,27.216,1.753,29.242.006.269.212-.154.539-1.085,3.124-5.383,12.925-8.57,12.925-8.57h4.461a11.914,11.914,0,0,1,1.971-7.486c6.225-2.6,22.352-1.148,22.352-1.148C330.013,70.819,309.818,70.16,297.346,72.873Z" transform="translate(-20.648 -5.308)" fill="#622b1a" fill-rule="evenodd"/>
    <path id="Path_125" data-name="Path 125" d="M295.69,96.623c-.307-1.951-5.619-4.053-6.864.727s3.528,11.222,5.811,9.87S296.016,98.7,295.69,96.623Z" transform="translate(-21.362 -6.989)" fill="#eea886" fill-rule="evenodd"/>
    <path id="Path_126" data-name="Path 126" d="M218.2,487.906l-4.965-19.163,1.445-.379,4.966,19.169Z" transform="translate(-15.782 -34.665)" fill="#73a5f5" fill-rule="evenodd"/>
    <path id="Path_127" data-name="Path 127" d="M205.181,455.656,156.456,275.9l4.114-1.116L209.3,454.538Z" transform="translate(-11.58 -20.337)" fill="#353a3d" fill-rule="evenodd"/>
    <path id="Path_128" data-name="Path 128" d="M202.845,460.725,86.489,437.6l78.135-118.241h144.2v4.264h-141.9L93.545,434.653l107.728,21.411,109.4-123.818,2.542,3.567Z" transform="translate(-6.401 -23.636)" fill="#353a3d" fill-rule="evenodd"/>
    <path id="Path_129" data-name="Path 129" d="M210.471,449.235a18.268,18.268,0,1,0,3.327.312A18.225,18.225,0,0,0,210.471,449.235Zm.019,41.723A23.527,23.527,0,1,1,233.6,471.727,23.5,23.5,0,0,1,210.489,490.958Z" transform="translate(-13.837 -32.854)" fill="#5b83c2" fill-rule="evenodd"/>
    <path id="Path_130" data-name="Path 130" d="M143.885,263.36s-.931,13.585,11.722,15.073,35.352,0,35.352,0S158.584,255.915,143.885,263.36Z" transform="translate(-10.648 -19.38)" fill="#857e83" fill-rule="evenodd"/>
    <path id="Path_131" data-name="Path 131" d="M354.936,360.319a79.509,79.509,0,1,0,79.5,79.506A79.593,79.593,0,0,0,354.936,360.319Zm0,163.282a83.507,83.507,0,1,1,32.6-6.586A83.242,83.242,0,0,1,354.936,523.6Z" transform="translate(-20.071 -26.352)" fill="#353a3d" fill-rule="evenodd"/>
    <path id="Path_132" data-name="Path 132" d="M355.284,365.023a75.153,75.153,0,1,0,75.139,75.15A75.232,75.232,0,0,0,355.284,365.023Zm0,154.565a79.128,79.128,0,1,1,30.908-6.237A78.895,78.895,0,0,1,355.284,519.588Z" transform="translate(-20.419 -26.7)" fill="#73a5f5" fill-rule="evenodd"/>
    <path id="Path_133" data-name="Path 133" d="M83.6,360.319a79.509,79.509,0,1,0,79.5,79.506A79.594,79.594,0,0,0,83.6,360.319Zm0,163.282a83.5,83.5,0,1,1,32.6-6.586A83.243,83.243,0,0,1,83.6,523.6Z" transform="translate(0.011 -26.352)" fill="#353a3d" fill-rule="evenodd"/>
    <path id="Path_134" data-name="Path 134" d="M83.952,365.023a75.153,75.153,0,1,0,75.14,75.15A75.231,75.231,0,0,0,83.952,365.023Zm0,154.565a79.128,79.128,0,1,1,30.908-6.237A78.889,78.889,0,0,1,83.952,519.588Z" transform="translate(-0.337 -26.7)" fill="#73a5f5" fill-rule="evenodd"/>
    <path id="Path_135" data-name="Path 135" d="M220.773,237.265s36.108,28.053,43.89,35.065,25.058,20.262,25.369,23.067,4.98,10.288-3.113,23.221-49.8,61.093-52.451,65.143-16.963,21.2-16.963,21.2L196.96,388.595s42.087-57.979,47.347-64.21,8.528-13.867,6.192-17.141-19.142-6.7-71.437-35.536c-5.225-2.881-24.9-7.793-24.125-15.43s-.155-32.884,15.408-38.651S220.773,237.265,220.773,237.265Z" transform="translate(-11.466 -16.044)" fill="#323657" fill-rule="evenodd"/>
    <path id="Path_136" data-name="Path 136" d="M95.468,446.072a5.618,5.618,0,1,1-5.619-5.62A5.62,5.62,0,0,1,95.468,446.072Z" transform="translate(-6.234 -32.599)" fill="#5b83c2" fill-rule="evenodd"/>
    <path id="Path_137" data-name="Path 137" d="M209.75,467.22l-6.089-22.834L205.1,444l6.091,22.835Z" transform="translate(-15.074 -32.861)" fill="#73a5f5" fill-rule="evenodd"/>
    <path id="Path_138" data-name="Path 138" d="M215.175,454.823l-22.153-17.8,2.047-2.554,22.153,17.808Z" transform="translate(-14.286 -32.156)" fill="#73a5f5" fill-rule="evenodd"/>
    <path id="Path_139" data-name="Path 139" d="M196.9,410.072s11.906,8.1,12.84,9.194a5.836,5.836,0,0,0,2.915,1.442s1.015,5.883,1.482,7.361,10.311,15.278,11.634,15.663,10.479,5.95,8.716,9.487-9.988.9-15.175-1.588-22.776-16.207-24.358-18.6l-.648-1.87s-2.179-.207-3.009-.311-7.782-6.335-7.782-6.335S190.762,414.086,196.9,410.072Z" transform="translate(-13.582 -30.35)" fill="#545c91" fill-rule="evenodd"/>
    <path id="Path_140" data-name="Path 140" d="M215.723,469.694a3.725,3.725,0,1,1-2.983-4.343A3.731,3.731,0,0,1,215.723,469.694Z" transform="translate(-15.42 -34.437)" fill="#5b83c2" fill-rule="evenodd"/>
    <path id="Path_141" data-name="Path 141" d="M356.525,436.448l-36.106-132.5,4.113-1.12,36.105,132.495Z" transform="translate(-23.715 -22.413)" fill="#353a3d" fill-rule="evenodd"/>
    <path id="Path_142" data-name="Path 142" d="M318.48,306.5h7.7v-3.985h-7.7Z" transform="translate(-23.572 -22.389)" fill="#353a3d" fill-rule="evenodd"/>
    <path id="Path_143" data-name="Path 143" d="M366.8,446.072a5.618,5.618,0,1,1-5.618-5.62A5.619,5.619,0,0,1,366.8,446.072Z" transform="translate(-26.317 -32.599)" fill="#5b83c2" fill-rule="evenodd"/>
    <path id="Path_144" data-name="Path 144" d="M263.119,120.607s-27.784-3.392-61.107,41.826S181.107,195.858,151,226.178l71.994,5.993s23.2-38.168,38.327-44.262,13.48-37.716,13.48-37.716Z" transform="translate(-11.176 -8.922)" fill="#d4d4d4" fill-rule="evenodd"/>
    <path id="Path_145" data-name="Path 145" d="M248.787,159.931c-10.508,0-22.2-5.444-29.6-14.076l4.522-3.877c6.974,8.138,18.813,13.091,28.175,11.789a16,16,0,0,0,13.008-9.7c2.07-4.5,2.349-8.414.832-11.631-2.822-5.985-13.855-9.045-13.937-9.067l3.319-5.336c.443.114,11.944,3.316,15.986,11.821,2.323,4.893,2.058,10.514-.788,16.7a21.913,21.913,0,0,1-17.6,13.109A28.541,28.541,0,0,1,248.787,159.931Z" transform="translate(-16.223 -8.735)" fill="#323657" fill-rule="evenodd"/>
    <path id="Path_146" data-name="Path 146" d="M274.154,139.337s4.55,11.432,6.945,19.435c2.314,7.731,12.3,31.793,13.23,33.663s16.031,26.181,17.742,28.987,29.416,37.4,30.038,37.56-12.918,10.131-12.918,10.131-33.929-40.521-35.952-44.261-24.279-31.015-27.393-36.469-19.41-31.143-21.011-35.534c-1.79-4.91-7.238-17.221,7.938-24.313C265.733,122.48,272.054,135.6,274.154,139.337Z" transform="translate(-17.941 -9.396)" fill="#d4d4d4" fill-rule="evenodd"/>
  </g>
</svg>
