<svg xmlns="http://www.w3.org/2000/svg" width="461" height="954" viewBox="0 0 461 954">
  <g id="Group_132" data-name="Group 132" transform="translate(-468 -151)">
    <path id="Rectangle_149" data-name="Rectangle 149" d="M0,0H461a0,0,0,0,1,0,0V493A461,461,0,0,1,0,954H0a0,0,0,0,1,0,0V0A0,0,0,0,1,0,0Z" transform="translate(468 151)" fill="#fff" opacity="0.389"/>
    <g id="Group" transform="translate(466 575)">
      <g id="Head" transform="translate(101.1 25.855)">
        <g id="Head-2" data-name="Head" transform="translate(42.687 8.993)">
          <path id="Head-3" data-name="Head" d="M0,82.06,9.281,38.77C4.105,32.691.6,25.239,1.187,16.89,2.874-7.166,36.338-1.874,42.847,10.268s5.736,42.94-2.676,45.11c-3.355.865-10.5-1.254-17.777-5.642L26.96,82.06Z" transform="translate(0 0)" fill="#b28b67"/>
        </g>
        <path id="hair" d="M88.08,24.712A30.861,30.861,0,0,0,86.633,19.9,22.515,22.515,0,0,0,83.8,14.62a39.9,39.9,0,0,0-7.5-8.145C71.144,2.271,64.588-.154,58.141.634a18.627,18.627,0,0,0-9.1,3.708c-2.43,1.869-4.767,4.619-7.914,4.817-3.424.215-6.562-2.809-9.308-4.677A25,25,0,0,0,21.808.246,16.633,16.633,0,0,0,5.874,6.273C1.429,11.569-1.8,19.335,1.117,26.352A9,9,0,0,0,3.36,29.668c.919.836,2.322,1.725,2.695,3.06.4,1.419-.786,3.251-1.245,4.532a13.346,13.346,0,0,0-1,5.756c.315,3.276,2.372,6.4,4.544,8.556A15.1,15.1,0,0,0,16.186,55.6a21.975,21.975,0,0,0,5.895.455,18.334,18.334,0,0,0,2.791-.561,2.523,2.523,0,0,1,2.22.541,18.207,18.207,0,0,0,11.741,2.912c3.543-.3,7.626-1.154,10.515-3.583,3.209-2.7,3.145-6.417,2.39-10.392.8.4,3.014.643,1.691-.939a7.16,7.16,0,0,0-2.186-1.25A7.955,7.955,0,0,1,49.058,41.1c-2.455-2.826.025-8.576,3.11-9.523,4.584-1.408,5.61,5.079,8.882,6.757,1.881.965,3.849-.354,5.259-1.7A21.073,21.073,0,0,0,70.6,30c.915-2,1.767-4.033,2.7-6.026.436-.931,1.944-3.561,1.186-4.613,3.283-.655,6.94.71,9.767,2.5a6.682,6.682,0,0,1,2.683,2.863c.134.28.424,1.112.789,1.146.68.064.426-.768.359-1.163" transform="translate(0 0)" fill="#2e2e34"/>
      </g>
      <g id="Bottom" transform="translate(11.233 211.675)">
        <g id="Seat" transform="translate(0 46.873)">
          <path id="Seat-2" data-name="Seat" d="M149.13,139.391H16a16,16,0,0,1-16-16V16A16,16,0,0,1,16,0H149.13a16,16,0,0,1,16,16V123.391a16,16,0,0,1-16,16ZM35.454,31.476a4,4,0,0,0-4,4v68.441a4,4,0,0,0,4,4h94.223a4,4,0,0,0,4-4V35.475a4,4,0,0,0-4-4Z" transform="translate(48.303 0)" fill="#c5cfd6"/>
        </g>
        <path id="LegLower" d="M74.319,131.522Q41.1,90.926,29.362,71.33C15.966,48.961,5,29.056,1.542,21.453-6.708,3.322,20.537-5.168,26.7,3.289q14,19.2,59.794,120.834Z" transform="translate(250.503 49.122)" fill="#b28b67"/>
        <path id="LegLower-2" data-name="LegLower" d="M42.414,129.274,1.2,25.446C-7.619,6.519,34.953-5.922,41.432,2.886c14.709,20,49.669,98.885,54.051,104.843Z" transform="translate(237.023 43.501)" fill="#f7a1b8"/>
        <g id="Lower_Leg" data-name="Lower Leg" transform="translate(242.078 59.239) rotate(39)">
          <path id="LegLower-3" data-name="LegLower" d="M2.068,117.626C.932,103.465-1.186,54.443.908,31.754c.6-6.52,1.236-12.824,1.876-18.737,1.9-17.577,34.489-17.01,31.907-.311-6.431,41.587-17.754,99.867-18.566,104.9C14.988,124.666,2.782,126.526,2.068,117.626Z" transform="translate(0 0)" fill="#b28b67"/>
        </g>
        <g id="Right_Shoe" data-name="Right Shoe" transform="translate(183.2 120.424) rotate(30)">
          <path id="shoe" d="M4.474,5.033A2,2,0,0,0,1.908,6.381L0,13.106A64.242,64.242,0,0,0,.9,21H57.3s2.2-7.268-2.538-7.848-7.87-1.047-7.87-1.047L20.68.419a1,1,0,0,0-1.332.532L17.663,5.039s-4.385,2.046-7.127,2.046Z" transform="translate(1 19)" fill="#e4e4e4"/>
        </g>
        <g id="Right_Shoe-2" data-name="Right Shoe" transform="translate(312.287 148.044)">
          <path id="shoe-2" data-name="shoe" d="M5.025,5.616A2.246,2.246,0,0,0,2.144,7.132L0,14.691a72.264,72.264,0,0,0,1.012,8.874H64.37s2.47-8.17-2.851-8.822-8.84-1.176-8.84-1.176L23.231.43a1.123,1.123,0,0,0-1.5.6L19.842,5.623s-4.926,2.3-8.005,2.3Z" transform="translate(1.123 21.4)" fill="#e4e4e4"/>
        </g>
        <path id="Leg_and_Butt" data-name="Leg and Butt" d="M107.5,74.133s-51.387-8.377-68.84-11.457C5.5,56.825-4.173,38.966,1.545,0h61.1C74.779,3.505,164.012,43.357,164.012,43.357c10.7,5.317,8.71,20.994,6.754,26.159-.12.316-54.13,92.819-54.13,92.819L66.649,130.469,107.6,77.888S109.218,74.619,107.5,74.133Z" transform="translate(115.887)" fill="#e88fa7"/>
      </g>
      <g id="Body_Long_Sleeve_1" data-name="Body/Long Sleeve 1" transform="translate(47.363 86.827)">
        <path id="Skin" d="M1.378,117.521c-1.254-.774-2.627-3.687.691-5.963,8.266-5.672,20.177-15.6,21.786-18.864C27.146,86.01,43.593,0,43.593,0l24.6.092S40.089,91.2,38.356,95.5c-2.6,6.447,2.9,16.264,5.253,21.54-3.707,1.66-5.43-.459-7.316-2.579-2.01-2.259-4.207-4.518-9.193-2.2-6.381,2.971-11.657,7.687-17.945,7.687A14.584,14.584,0,0,1,1.378,117.521ZM221.723,65.938l-33.09-19.523,10.569-18.3L231.023,59.18q13.888,5.929,22.76,13.093c1.329,1.6,2.777,4.681-3.48,3.3s-12.9-2.542-14.077-.506,2.29,5.157.116,7.822a.822.822,0,0,1-.667.319Q232.68,83.211,221.723,65.938Z" transform="translate(0 81.173)" fill="#b28b67"/>
        <path id="Clothes_Back" data-name="Clothes Back" d="M0,2.508,9.531,0C29.493,52.59,111.03,82.493,117.6,102.23c2.41,7.238-2.58,11.44.364,13.451L106.193,126c-2.347-2.3-6.495,2.646-16.265.295S5.586,66.357,0,2.508Z" transform="matrix(0.996, 0.087, -0.087, 0.996, 118.766, 8.847)" fill="#64412f"/>
        <path id="Clothes_Front" data-name="Clothes Front" d="M4.937,168.3c1.121-6.2-6.669-9.221-4.58-23.073C12.164,66.912,57.472,24.846,75.752,10.768l.495-7.081a4,4,0,0,1,4.27-3.711l31.242,2.184a4,4,0,0,1,3.711,4.27l-.845,12.09C113.507,90.178,154.9,108.451,145.681,137.2c-7.615,23.74-80.5,49.26-93.11,25.989-5.055-9.327-7.376-20.589-7.676-32.834-3.179,9.246-5.84,17.558-7.657,24.212C34,166.413,21.461,168.3,21.461,172.861Z" transform="translate(20.263 0.033)" fill="#4d2f1f"/>
      </g>
    </g>
  </g>
</svg>
