<svg width="92" height="41" viewBox="0 0 92 41" fill="none" xmlns="http://www.w3.org/2000/svg">
<path fill-rule="evenodd" clip-rule="evenodd" d="M0.000976562 17.8634L12.3084 35.0763L13.15 34.8099C13.1448 34.9148 13.1421 35.0215 13.1421 35.13C13.1421 36.65 13.8008 37.866 15.1181 38.778C16.4608 39.7154 18.3228 40.184 20.7041 40.184C21.8188 40.184 22.9715 40.0447 24.1621 39.766C25.3528 39.4874 26.4295 39.0187 27.3921 38.36C28.3802 37.7267 29.1781 36.8907 29.7861 35.852C30.4195 34.8387 30.7361 33.572 30.7361 32.052C30.7361 30.9965 30.5402 30.1222 30.1483 29.4291L31.7095 28.9349C31.6809 29.3197 31.6477 29.7001 31.6101 30.076C31.9648 30.0254 32.3828 30 32.8641 30H34.4601H36.0561C36.5628 30 36.9808 30.0254 37.3101 30.076C37.1835 28.8094 37.0948 27.492 37.0441 26.124C37.0188 24.756 37.0061 23.2994 37.0061 21.754V20.234C37.0061 19.2207 37.3355 18.3467 37.9941 17.612C38.6528 16.852 39.5521 16.472 40.6921 16.472C41.0975 16.472 41.4521 16.5227 41.7561 16.624C42.0855 16.7254 42.3768 16.852 42.6301 17.004L42.9721 16.7C42.9468 16.4974 42.9341 16.282 42.9341 16.054V15.408V14.192C42.9341 13.6094 42.9468 13.1027 42.9721 12.672C43.0228 12.2414 43.0861 11.836 43.1621 11.456H42.8581C42.7821 11.4307 42.6808 11.418 42.5541 11.418C41.2621 11.418 40.1475 11.836 39.2101 12.672C38.2728 13.4827 37.4748 14.762 36.8161 16.51L36.7401 16.434L36.8541 11.798C36.4235 11.8487 35.9801 11.8994 35.5241 11.95C35.0935 11.9754 34.6628 11.988 34.2321 11.988C33.8015 11.988 33.3581 11.9754 32.9021 11.95L32.6094 11.9156L32.6426 7.53069L12.5682 0.839256L0.000976562 17.8634ZM32.6094 11.9156L31.6101 11.798C31.7368 13.166 31.8128 14.534 31.8381 15.902C31.8888 17.2447 31.9141 18.6887 31.9141 20.234V21.754C31.9141 23.2994 31.8888 24.756 31.8381 26.124C31.8203 27.086 31.7775 28.023 31.7095 28.9349L32.482 28.6904L32.6094 11.9156ZM24.7176 31.1482L30.1483 29.4291C29.91 29.0077 29.5993 28.6534 29.2161 28.366C28.2281 27.5807 26.6701 27.1754 24.5421 27.15L21.7301 27.112C20.7168 27.0867 19.9695 26.8967 19.4881 26.542C19.0321 26.1874 18.8041 25.706 18.8041 25.098C18.8041 24.7434 18.9055 24.4267 19.1081 24.148C19.3361 23.8694 19.6021 23.73 19.9061 23.73C20.2355 23.73 20.5268 23.7427 20.7801 23.768H21.6161C22.7308 23.768 23.7315 23.616 24.6181 23.312C25.5301 23.008 26.3028 22.5774 26.9361 22.02C27.5948 21.4627 28.1015 20.804 28.4561 20.044C28.8108 19.2587 28.9881 18.3974 28.9881 17.46C28.9881 16.4974 28.7981 15.674 28.4181 14.99C28.0635 14.2807 27.5695 13.698 26.9361 13.242L27.0501 13.166L30.3941 13.318L30.3181 12.862V12.406V11.95L30.3941 11.494C29.7101 11.494 29.0261 11.5067 28.3421 11.532H26.3661H25.2261L24.2381 11.456C23.7821 11.4307 23.3135 11.4054 22.8321 11.38C22.3508 11.3294 21.8821 11.304 21.4261 11.304C20.2355 11.304 19.1461 11.4434 18.1581 11.722C17.1701 12.0007 16.3215 12.406 15.6121 12.938C14.9028 13.4447 14.3455 14.078 13.9401 14.838C13.5601 15.598 13.3701 16.4594 13.3701 17.422C13.3701 19.0434 13.8008 20.3607 14.6621 21.374C15.4981 22.362 16.6888 23.046 18.2341 23.426V23.502C17.1701 23.7807 16.3088 24.3127 15.6501 25.098C15.0168 25.8834 14.7001 26.694 14.7001 27.53C14.7001 28.2394 14.8901 28.8347 15.2701 29.316C15.6755 29.772 16.2075 30.114 16.8661 30.342V30.418C15.7261 30.8487 14.8141 31.4314 14.1301 32.166C13.5303 32.8582 13.2036 33.7395 13.15 34.8099L16.6225 33.7107C16.6076 33.8856 16.6001 34.0674 16.6001 34.256C16.6001 34.9907 16.7268 35.624 16.9801 36.156C17.2588 36.7134 17.6261 37.1694 18.0821 37.524C18.5381 37.8787 19.0575 38.1447 19.6401 38.322C20.2481 38.5247 20.8941 38.626 21.5781 38.626C22.3128 38.626 22.9715 38.4994 23.5541 38.246C24.1368 38.018 24.6308 37.6887 25.0361 37.258C25.4668 36.8527 25.7835 36.3714 25.9861 35.814C26.2141 35.282 26.3281 34.712 26.3281 34.104C26.3281 33.3694 26.2015 32.7614 25.9481 32.28C25.6948 31.824 25.3275 31.4694 24.8461 31.216C24.8043 31.1928 24.7614 31.1701 24.7176 31.1482ZM24.7176 31.1482L16.6225 33.7107C16.6777 33.0636 16.8349 32.5107 17.0941 32.052C17.4488 31.4694 17.7781 31.102 18.0821 30.95C18.5888 30.6967 19.5008 30.57 20.8181 30.57C21.6795 30.57 22.4521 30.608 23.1361 30.684C23.7573 30.7761 24.2845 30.9308 24.7176 31.1482ZM18.6901 17.878C18.6901 14.534 19.5515 12.862 21.2741 12.862C21.9581 12.862 22.5281 13.2167 22.9841 13.926C23.4401 14.61 23.6681 15.8134 23.6681 17.536C23.6681 19.284 23.4655 20.5254 23.0601 21.26C22.6548 21.9947 22.0341 22.362 21.1981 22.362C20.8941 22.362 20.5901 22.286 20.2861 22.134C20.0075 21.982 19.7415 21.7287 19.4881 21.374C19.2601 21.0194 19.0701 20.5634 18.9181 20.006C18.7661 19.4234 18.6901 18.714 18.6901 17.878ZM49.6097 23.844C49.407 22.9574 49.3057 22.0074 49.3057 20.994H60.2117C60.237 20.918 60.2497 20.766 60.2497 20.538V19.74C60.2497 17.0547 59.5783 14.9774 58.2357 13.508C56.9183 12.0387 55.0057 11.304 52.4977 11.304C51.231 11.304 50.053 11.5067 48.9637 11.912C47.8997 12.3174 46.975 12.9254 46.1897 13.736C45.4043 14.5467 44.7837 15.56 44.3277 16.776C43.897 17.992 43.6817 19.4234 43.6817 21.07C43.6817 22.742 43.9223 24.186 44.4037 25.402C44.9103 26.5927 45.5817 27.5807 46.4177 28.366C47.279 29.1514 48.267 29.7087 49.3817 30.038C50.4963 30.3927 51.6743 30.57 52.9157 30.57C54.3597 30.57 55.525 30.418 56.4117 30.114C57.2983 29.8354 58.0583 29.4554 58.6917 28.974L59.5277 26.846L59.0717 26.504C57.7037 27.644 56.1457 28.214 54.3977 28.214C53.5363 28.214 52.7763 28.0367 52.1177 27.682C51.4843 27.302 50.9523 26.7954 50.5217 26.162C50.1163 25.5034 49.8123 24.7307 49.6097 23.844ZM54.4357 14.724C54.8663 15.864 55.107 17.384 55.1577 19.284H49.3057C49.331 18.5494 49.3943 17.8147 49.4957 17.08C49.6223 16.32 49.7997 15.6487 50.0277 15.066C50.2557 14.458 50.5597 13.964 50.9397 13.584C51.3197 13.204 51.7883 13.014 52.3457 13.014C53.3337 13.014 54.0303 13.584 54.4357 14.724ZM62.9477 26.58C62.7197 26.2 62.5297 25.8074 62.3777 25.402H61.4277C61.3517 26.618 61.1617 27.834 60.8577 29.05C61.3897 29.4047 62.1117 29.7467 63.0237 30.076C63.9357 30.4054 64.9617 30.57 66.1017 30.57C67.0643 30.57 67.9763 30.456 68.8377 30.228C69.7243 30 70.5097 29.6327 71.1937 29.126C71.8777 28.594 72.4223 27.9354 72.8277 27.15C73.233 26.3394 73.4357 25.3767 73.4357 24.262C73.4357 23.1474 73.2077 22.2354 72.7517 21.526C72.321 20.8167 71.7764 20.2467 71.1177 19.816C70.459 19.36 69.737 18.9927 68.9517 18.714C68.1663 18.4354 67.4443 18.1567 66.7857 17.878C66.127 17.5994 65.5697 17.2827 65.1137 16.928C64.683 16.548 64.4677 16.054 64.4677 15.446C64.4677 14.7874 64.721 14.2554 65.2277 13.85C65.7597 13.4447 66.4057 13.242 67.1657 13.242C67.7737 13.242 68.293 13.356 68.7237 13.584C69.1543 13.7867 69.5217 14.0527 69.8257 14.382C70.1297 14.7114 70.3703 15.066 70.5477 15.446C70.725 15.8007 70.8517 16.13 70.9277 16.434H71.9917C72.0677 15.8767 72.1817 15.3067 72.3337 14.724C72.4857 14.1414 72.6757 13.5967 72.9037 13.09C72.0423 12.5074 71.1937 12.064 70.3577 11.76C69.547 11.456 68.6097 11.304 67.5457 11.304C66.7603 11.304 65.9623 11.4307 65.1517 11.684C64.3663 11.912 63.657 12.2794 63.0237 12.786C62.3903 13.2674 61.871 13.9007 61.4657 14.686C61.0857 15.446 60.8957 16.358 60.8957 17.422C60.8957 18.5367 61.111 19.4487 61.5417 20.158C61.9723 20.8674 62.5043 21.4627 63.1377 21.944C63.7963 22.4 64.5057 22.78 65.2657 23.084C66.0257 23.388 66.7223 23.692 67.3557 23.996C68.0143 24.2747 68.559 24.5914 68.9897 24.946C69.4203 25.3007 69.6357 25.7694 69.6357 26.352C69.6357 26.884 69.395 27.378 68.9137 27.834C68.4323 28.29 67.7484 28.518 66.8617 28.518C66.203 28.518 65.6203 28.4294 65.1137 28.252C64.6323 28.0747 64.2143 27.8467 63.8597 27.568C63.505 27.264 63.201 26.9347 62.9477 26.58ZM75.0952 7.73203C75.1459 9.80937 75.1712 12.0894 75.1712 14.572V17.042C75.1712 19.5247 75.1459 21.8047 75.0952 23.882C75.0445 25.9594 74.9685 28.024 74.8672 30.076C75.3232 30.0254 75.7792 30 76.2352 30H77.6032H78.9712C79.4272 30 79.8832 30.0254 80.3392 30.076C80.2885 29.924 80.2379 29.6327 80.1872 29.202C80.1619 28.7714 80.1365 28.3154 80.1112 27.834C80.1112 27.3274 80.0985 26.8334 80.0732 26.352V25.136V23.008C80.0732 22.2227 80.0859 21.754 80.1112 21.602C80.1619 21.45 80.2379 21.374 80.3392 21.374C80.4405 21.374 80.6305 21.564 80.9092 21.944C81.1879 22.324 81.5045 22.818 81.8592 23.426C82.2139 24.0087 82.5812 24.6547 82.9612 25.364C83.3665 26.0734 83.7465 26.7574 84.1012 27.416C84.4812 28.0494 84.8105 28.6194 85.0892 29.126C85.3932 29.6327 85.6085 29.9494 85.7352 30.076C86.2165 30.0254 86.6852 30 87.1412 30H88.6232H90.1052C90.5865 30 91.0932 30.0254 91.6252 30.076C91.5239 29.8987 91.2959 29.5187 90.9412 28.936C90.5865 28.328 90.1685 27.6314 89.6872 26.846C89.2312 26.0354 88.7372 25.1994 88.2052 24.338C87.6732 23.4514 87.1665 22.628 86.6852 21.868C86.2039 21.0827 85.7859 20.4114 85.4312 19.854C85.1019 19.2967 84.8865 18.942 84.7852 18.79C85.0639 18.486 85.5072 18.0174 86.1152 17.384C86.7232 16.7507 87.3692 16.092 88.0532 15.408C88.7372 14.6987 89.3959 14.0147 90.0292 13.356C90.6879 12.6974 91.1819 12.178 91.5112 11.798C91.0299 11.8487 90.6245 11.8994 90.2952 11.95C89.9659 11.9754 89.6619 11.988 89.3832 11.988C89.0792 11.988 88.7752 11.9754 88.4712 11.95C88.1925 11.8994 87.9012 11.8487 87.5972 11.798C86.6092 13.0647 85.6972 14.2174 84.8612 15.256C84.0505 16.2694 83.3285 17.1434 82.6952 17.878C82.0872 18.6127 81.5805 19.1827 81.1752 19.588C80.7952 19.968 80.5545 20.158 80.4532 20.158C80.3519 20.158 80.2885 20.1074 80.2632 20.006V19.322V13.052C80.2885 11.2787 80.3139 9.70803 80.3392 8.34003C80.3645 6.97204 80.3899 5.74337 80.4152 4.65403C80.4659 3.5647 80.5165 2.48803 80.5672 1.42403C80.2379 1.4747 79.8199 1.52537 79.3132 1.57604C78.8065 1.60137 78.2745 1.61403 77.7172 1.61403C77.1599 1.61403 76.6279 1.60137 76.1212 1.57604C75.6145 1.52537 75.1965 1.4747 74.8672 1.42403C74.9685 3.55203 75.0445 5.6547 75.0952 7.73203Z" fill="#333333"/>
</svg>
