<svg width="76" height="26" viewBox="0 0 76 26" fill="none" xmlns="http://www.w3.org/2000/svg">
<path d="M0.76 0.807999H5.56V25H0.76V0.807999ZM8.4325 17.224C8.4325 15.9867 8.6565 14.8667 9.1045 13.864C9.5525 12.8613 10.1605 12.008 10.9285 11.304C11.7178 10.5787 12.6352 10.024 13.6805 9.64C14.7472 9.256 15.8778 9.064 17.0725 9.064C18.2672 9.064 19.3872 9.256 20.4325 9.64C21.4992 10.024 22.4165 10.5787 23.1845 11.304C23.9738 12.008 24.5925 12.8613 25.0405 13.864C25.4885 14.8667 25.7125 15.9867 25.7125 17.224C25.7125 18.4613 25.4885 19.5813 25.0405 20.584C24.5925 21.5867 23.9738 22.4507 23.1845 23.176C22.4165 23.88 21.4992 24.424 20.4325 24.808C19.3872 25.192 18.2672 25.384 17.0725 25.384C15.8778 25.384 14.7472 25.192 13.6805 24.808C12.6352 24.424 11.7178 23.88 10.9285 23.176C10.1605 22.4507 9.5525 21.5867 9.1045 20.584C8.6565 19.5813 8.4325 18.4613 8.4325 17.224ZM13.2325 17.224C13.2325 18.3973 13.5632 19.3467 14.2245 20.072C14.9072 20.7973 15.8565 21.16 17.0725 21.16C18.2885 21.16 19.2272 20.7973 19.8885 20.072C20.5712 19.3467 20.9125 18.3973 20.9125 17.224C20.9125 16.0507 20.5712 15.1013 19.8885 14.376C19.2272 13.6507 18.2885 13.288 17.0725 13.288C15.8565 13.288 14.9072 13.6507 14.2245 14.376C13.5632 15.1013 13.2325 16.0507 13.2325 17.224ZM28.5398 9.448H33.3398V11.944H33.4038C33.9158 10.984 34.5238 10.2693 35.2278 9.8C35.9318 9.30933 36.8171 9.064 37.8838 9.064C38.1611 9.064 38.4384 9.07467 38.7158 9.096C38.9931 9.11733 39.2491 9.16 39.4838 9.224V13.608C39.1424 13.5013 38.8011 13.4267 38.4598 13.384C38.1398 13.32 37.7984 13.288 37.4358 13.288C36.5184 13.288 35.7931 13.416 35.2598 13.672C34.7264 13.928 34.3104 14.2907 34.0118 14.76C33.7344 15.208 33.5531 15.752 33.4678 16.392C33.3824 17.032 33.3398 17.736 33.3398 18.504V25H28.5398V9.448ZM40.4325 17.224C40.4325 15.9867 40.6565 14.8667 41.1045 13.864C41.5525 12.8613 42.1605 12.008 42.9285 11.304C43.7178 10.5787 44.6352 10.024 45.6805 9.64C46.7472 9.256 47.8778 9.064 49.0725 9.064C50.2672 9.064 51.3872 9.256 52.4325 9.64C53.4992 10.024 54.4165 10.5787 55.1845 11.304C55.9738 12.008 56.5925 12.8613 57.0405 13.864C57.4885 14.8667 57.7125 15.9867 57.7125 17.224C57.7125 18.4613 57.4885 19.5813 57.0405 20.584C56.5925 21.5867 55.9738 22.4507 55.1845 23.176C54.4165 23.88 53.4992 24.424 52.4325 24.808C51.3872 25.192 50.2672 25.384 49.0725 25.384C47.8778 25.384 46.7472 25.192 45.6805 24.808C44.6352 24.424 43.7178 23.88 42.9285 23.176C42.1605 22.4507 41.5525 21.5867 41.1045 20.584C40.6565 19.5813 40.4325 18.4613 40.4325 17.224ZM45.2325 17.224C45.2325 18.3973 45.5632 19.3467 46.2245 20.072C46.9072 20.7973 47.8565 21.16 49.0725 21.16C50.2885 21.16 51.2272 20.7973 51.8885 20.072C52.5712 19.3467 52.9125 18.3973 52.9125 17.224C52.9125 16.0507 52.5712 15.1013 51.8885 14.376C51.2272 13.6507 50.2885 13.288 49.0725 13.288C47.8565 13.288 46.9072 13.6507 46.2245 14.376C45.5632 15.1013 45.2325 16.0507 45.2325 17.224ZM75.5158 25H70.9078V22.888H70.8438C70.6731 23.1867 70.4491 23.4853 70.1718 23.784C69.9158 24.0827 69.5958 24.3493 69.2118 24.584C68.8278 24.8187 68.3904 25.0107 67.8998 25.16C67.4091 25.3093 66.8758 25.384 66.2998 25.384C65.0838 25.384 64.0918 25.2027 63.3238 24.84C62.5771 24.456 61.9904 23.9333 61.5638 23.272C61.1584 22.6107 60.8811 21.832 60.7318 20.936C60.6038 20.04 60.5398 19.0693 60.5398 18.024V9.448H65.3398V17.064C65.3398 17.512 65.3504 17.9813 65.3718 18.472C65.4144 18.9413 65.5104 19.3787 65.6598 19.784C65.8304 20.1893 66.0758 20.52 66.3958 20.776C66.7371 21.032 67.2171 21.16 67.8358 21.16C68.4544 21.16 68.9558 21.0533 69.3398 20.84C69.7238 20.6053 70.0118 20.3067 70.2038 19.944C70.4171 19.56 70.5558 19.1333 70.6198 18.664C70.6838 18.1947 70.7158 17.704 70.7158 17.192V9.448H75.5158V25Z" fill="white"/>
</svg>
