<svg width="85" height="23" viewBox="0 0 85 23" fill="none" xmlns="http://www.w3.org/2000/svg">
<path d="M20.1094 14.9531L20.0156 22H0.703125V20.2656H1.01562C2.07812 20.2656 2.76562 20.0729 3.07812 19.6875C3.40104 19.2917 3.5625 18.6198 3.5625 17.6719V5.14062C3.5625 4.17188 3.39583 3.5 3.0625 3.125C2.72917 2.73958 2.04688 2.54688 1.01562 2.54688H0.703125V0.8125H12.0625V2.54688H11.6406C10.5781 2.54688 9.88542 2.74479 9.5625 3.14062C9.25 3.52604 9.09375 4.19271 9.09375 5.14062V17.2344C9.09375 18.1406 9.14583 18.7396 9.25 19.0312C9.35417 19.3229 9.625 19.5781 10.0625 19.7969C10.5104 20.0052 11.2865 20.1094 12.3906 20.1094C14.2448 20.1094 15.6302 19.6458 16.5469 18.7188C17.4635 17.7812 18.0885 16.526 18.4219 14.9531H20.1094ZM19.9312 15.5625C19.9312 13.4167 20.6917 11.7344 22.2125 10.5156C23.7333 9.29688 25.5719 8.6875 27.7281 8.6875C29.8323 8.6875 31.6656 9.28125 33.2281 10.4688C34.7906 11.6458 35.5719 13.349 35.5719 15.5781C35.5719 17.6927 34.8062 19.3802 33.275 20.6406C31.7437 21.8906 29.8896 22.5156 27.7125 22.5156C25.5875 22.5156 23.7594 21.9219 22.2281 20.7344C20.6969 19.5365 19.9312 17.8125 19.9312 15.5625ZM25.2906 15.4062C25.2906 17.4062 25.4729 18.8073 25.8375 19.6094C26.2125 20.401 26.8583 20.7969 27.775 20.7969C28.5146 20.7969 29.1031 20.4635 29.5406 19.7969C29.9885 19.1302 30.2125 17.7083 30.2125 15.5312C30.2125 13.5521 30.0146 12.2135 29.6187 11.5156C29.2229 10.8073 28.5979 10.4531 27.7437 10.4531C27.0667 10.4531 26.4885 10.7552 26.0094 11.3594C25.5302 11.9531 25.2906 13.3021 25.2906 15.4062ZM42.8937 11.9062C43.4979 10.8333 44.1854 10.0312 44.9562 9.5C45.7271 8.95833 46.576 8.6875 47.5031 8.6875C48.3885 8.6875 49.0604 8.96875 49.5187 9.53125C49.9771 10.0833 50.2062 10.6875 50.2062 11.3438C50.2062 11.9583 50.024 12.4844 49.6594 12.9219C49.2948 13.3594 48.7844 13.5781 48.1281 13.5781C47.774 13.5781 47.4823 13.5104 47.2531 13.375C47.024 13.2396 46.7219 12.9583 46.3469 12.5312C45.9719 12.1146 45.5656 11.9062 45.1281 11.9062C44.451 11.9062 43.9406 12.3229 43.5969 13.1562C43.2635 13.9792 43.0969 15.2188 43.0969 16.875V18.2656C43.0969 19.0365 43.2167 19.5781 43.4562 19.8906C43.6958 20.1927 44.2479 20.3438 45.1125 20.3438H45.425V22H35.9406V20.3438C36.8469 20.3438 37.4198 20.1927 37.6594 19.8906C37.899 19.5885 38.0187 19.0469 38.0187 18.2656V13.7969C38.0187 13.0052 37.8937 12.4635 37.6437 12.1719C37.4042 11.8698 36.826 11.7188 35.9094 11.7188V10.0625L42.3937 8.6875C42.6854 9.53125 42.8521 10.6042 42.8937 11.9062ZM50.075 15.5625C50.075 13.4167 50.8354 11.7344 52.3563 10.5156C53.8771 9.29688 55.7156 8.6875 57.8719 8.6875C59.976 8.6875 61.8094 9.28125 63.3719 10.4688C64.9344 11.6458 65.7156 13.349 65.7156 15.5781C65.7156 17.6927 64.95 19.3802 63.4188 20.6406C61.8875 21.8906 60.0333 22.5156 57.8563 22.5156C55.7313 22.5156 53.9031 21.9219 52.3719 20.7344C50.8406 19.5365 50.075 17.8125 50.075 15.5625ZM55.4344 15.4062C55.4344 17.4062 55.6167 18.8073 55.9813 19.6094C56.3563 20.401 57.0021 20.7969 57.9188 20.7969C58.6583 20.7969 59.2469 20.4635 59.6844 19.7969C60.1323 19.1302 60.3563 17.7083 60.3563 15.5312C60.3563 13.5521 60.1583 12.2135 59.7625 11.5156C59.3667 10.8073 58.7417 10.4531 57.8875 10.4531C57.2104 10.4531 56.6323 10.7552 56.1531 11.3594C55.674 11.9531 55.4344 13.3021 55.4344 15.4062ZM77.0687 20.25C76.3917 21 75.6573 21.5677 74.8656 21.9531C74.0844 22.3281 73.2406 22.5156 72.3344 22.5156C71.1781 22.5156 70.126 22.1927 69.1781 21.5469C68.2406 20.901 67.7719 19.6667 67.7719 17.8438V12.9375C67.7719 12.1354 67.6417 11.5885 67.3812 11.2969C67.1312 11.0052 66.6156 10.8594 65.8344 10.8594V9.20312H72.8187V17.5625C72.8187 18.375 72.9437 18.9583 73.1937 19.3125C73.4437 19.6667 73.8396 19.8438 74.3812 19.8438C74.7875 19.8438 75.2146 19.6771 75.6625 19.3438C76.1104 19.0104 76.5792 18.5104 77.0687 17.8438V12.9375C77.0687 12.1562 76.9437 11.6146 76.6937 11.3125C76.4542 11.0104 75.8812 10.8594 74.975 10.8594V9.20312H82.1312V18.2656C82.1312 19.0573 82.251 19.6042 82.4906 19.9062C82.7406 20.1979 83.3292 20.3438 84.2562 20.3438V22C83.975 21.9896 83.7198 21.9844 83.4906 21.9844C81.574 21.9844 79.4333 22.1615 77.0687 22.5156V20.25Z" fill="#1C1C1C"/>
</svg>
