<svg xmlns="http://www.w3.org/2000/svg" width="579.739" height="416.654" viewBox="0 0 579.739 416.654">
  <defs>
    <style>
      .cls-1 {
        fill: #f2f2f2;
      }

      .cls-2 {
        fill: #c25283;
      }

      .cls-3 {
        fill: #6c63ff;
      }

      .cls-4 {
        fill: #3f3d56;
      }

      .cls-10, .cls-5 {
        opacity: 0.1;
      }

      .cls-6 {
        fill: #2f2e41;
      }

      .cls-7 {
        fill: #a0616a;
      }

      .cls-8 {
        fill: #d0cde1;
      }

      .cls-10, .cls-9 {
        fill: #7e3052;
      }
    </style>
  </defs>
  <g id="undraw_notify_88a4" transform="translate(0 -0.035)">
    <circle id="Ellipse_60" data-name="Ellipse 60" class="cls-1" cx="179.268" cy="179.268" r="179.268" transform="translate(59.232 53.435)"/>
    <path id="Path_267" data-name="Path 267" class="cls-2" d="M940.679,244.148l-18.7,22.174c-1.009,9.551-2.44,20.223-4.469,31.419l30.728-31.789.144.555a86.273,86.273,0,0,0-7.872-22.884Z" transform="translate(-461.208 -143.447)"/>
    <path id="Path_268" data-name="Path 268" class="cls-2" d="M926.365,248.208l18.117-21.479c-3.954-7.351-8.962-13.223-14.945-17.076-.311-.2-.625-.39-.938-.577C928.6,211.686,928.526,227.012,926.365,248.208Z" transform="translate(-465.423 -127.009)"/>
    <path id="Path_269" data-name="Path 269" class="cls-2" d="M930.277,404.709l.039.643q1.573-5.912,2.688-11.839l-44.561,28.771-.029-.293q-1.264,3.443-2.6,6.757Z" transform="translate(-446.128 -214.769)"/>
    <path id="Path_270" data-name="Path 270" class="cls-2" d="M944.123,319.744l.09.61a135.628,135.628,0,0,0-2.261-31.936l-31.313,32.395q-2.924,15.727-6.885,29.937Z" transform="translate(-454.664 -164.762)"/>
    <path id="Path_271" data-name="Path 271" class="cls-2" d="M819.191,244.779a113.247,113.247,0,0,0-11.956,19.444l51.61,58.914c2.125-8.263,3.838-16.276,5.217-23.749l-45.143-54.026Z" transform="translate(-408.738 -143.998)"/>
    <path id="Path_272" data-name="Path 272" class="cls-2" d="M800.279,290.483l.262-.591,53,58.8q.856-3.02,1.637-6.008l-51.8-59.131.266-.589Q801.886,286.6,800.279,290.483Z" transform="translate(-405.428 -162.169)"/>
    <path id="Path_273" data-name="Path 273" class="cls-2" d="M935.878,371.744l.063.629a161.957,161.957,0,0,0,2.5-21.69l-40.915,31.425q-2.7,9.46-5.839,18.167Z" transform="translate(-448.923 -194.39)"/>
    <path id="Path_274" data-name="Path 274" class="cls-2" d="M842,488.1A132.1,132.1,0,0,1,818.5,518.581c9.625-3.882,48.4-20.985,68.5-51.827Z" transform="translate(-414.1 -249.619)"/>
    <path id="Path_275" data-name="Path 275" class="cls-2" d="M784.039,354.407a156.69,156.69,0,0,0-.9,20.955l.323-.627,41.567,58.311a194.785,194.785,0,0,0,10.2-21Z" transform="translate(-397.25 -196.161)"/>
    <path id="Path_276" data-name="Path 276" class="cls-2" d="M900.24,244.252c2.332-22.933,2.207-38.913,2.2-39.143l.4-.161c-9.358-5.425-19.7-5.236-29.771-.414Z" transform="translate(-440.063 -123.118)"/>
    <path id="Path_277" data-name="Path 277" class="cls-2" d="M875.347,441.906c-.281.683-.56,1.37-.845,2.045a193.572,193.572,0,0,1-9.218,18.935l44.579-21.139.022.632a76.728,76.728,0,0,0,8.294-17.5q1.171-3.636,2.16-7.3Z" transform="translate(-436.358 -226.221)"/>
    <path id="Path_278" data-name="Path 278" class="cls-3" d="M875.52,280.537c2-11.07,3.408-21.617,4.4-31.057l-27.794-40.63.293-.555c-7.569,3.743-14.972,10.1-21.679,18.655Z" transform="translate(-419.924 -126.638)"/>
    <path id="Path_279" data-name="Path 279" class="cls-2" d="M824.471,453.937l-41.262-57.884c.994,41.959,15.321,86.739,16.245,89.587C809.362,476.766,817.609,465.856,824.471,453.937Z" transform="translate(-397.305 -215.978)"/>
    <path id="Path_280" data-name="Path 280" class="cls-2" d="M836.734,384.188l.043-.023a262.875,262.875,0,0,0,9.23-26.751l-53.129-58.947q-2.153,5.276-4,10.991a94.2,94.2,0,0,0-3.623,16.762Z" transform="translate(-398.278 -169.543)"/>
    <path id="Path_281" data-name="Path 281" class="cls-2" d="M994.693,572.8l-28.547,5.15c-6.869,6.712-14.778,14.019-23.481,21.348l43.942-4.885-.243.519a86.271,86.271,0,0,0,8.533-22.646Z" transform="translate(-473.178 -299.836)"/>
    <path id="Path_282" data-name="Path 282" class="cls-2" d="M989.756,554.778l27.653-4.988c1.643-8.184,1.532-15.9-.619-22.684-.112-.353-.233-.7-.355-1.043C1014.773,528.077,1004.939,539.832,989.756,554.778Z" transform="translate(-495.585 -277.839)"/>
    <path id="Path_283" data-name="Path 283" class="cls-2" d="M895.207,697.931l-.381.52q4.982-3.551,9.622-7.4l-52.67-6.262.164-.245q-3.17,1.845-6.312,3.547Z" transform="translate(-427.007 -353.246)"/>
    <path id="Path_284" data-name="Path 284" class="cls-2" d="M944.374,642.024l-.319.527a135.633,135.633,0,0,0,18.628-26.039L917.9,621.49q-12.283,10.248-24.4,18.666Z" transform="translate(-449.788 -320.877)"/>
    <path id="Path_285" data-name="Path 285" class="cls-2" d="M920.8,489.409a113.254,113.254,0,0,0-21.61,7.35l2.173,78.292c6.907-5.009,13.337-10.088,19.165-14.964l-.31-70.4Z" transform="translate(-452.491 -260.398)"/>
    <path id="Path_286" data-name="Path 286" class="cls-2" d="M883.987,507.574l.579-.288,3.314,79.093q2.585-1.78,5.093-3.583l-2.181-78.581.58-.284Q887.7,505.6,883.987,507.574Z" transform="translate(-445.258 -267.308)"/>
    <path id="Path_287" data-name="Path 287" class="cls-2" d="M912.233,680.05l-.353.524a161.955,161.955,0,0,0,15.76-15.11l-51.555-1.893Q867.976,669.139,860,673.84Z" transform="translate(-433.845 -343.269)"/>
    <path id="Path_288" data-name="Path 288" class="cls-2" d="M764.423,712.955a132.1,132.1,0,0,1-37.538,8.5c9.889,3.149,50.663,14.709,85.812,3.773Z" transform="translate(-370.505 -366.767)"/>
    <path id="Path_289" data-name="Path 289" class="cls-2" d="M818.847,545.049a156.683,156.683,0,0,0-14.06,15.564l.649-.277-5.177,71.422a194.821,194.821,0,0,0,21.25-9.668Z" transform="translate(-405.418 -286.873)"/>
    <path id="Path_290" data-name="Path 290" class="cls-2" d="M988.71,536.318c16.423-16.176,26.519-28.563,26.664-28.741l.408.129c-3.747-10.147-11.832-16.6-22.665-19.308Z" transform="translate(-495.088 -259.917)"/>
    <path id="Path_291" data-name="Path 291" class="cls-2" d="M823.345,692.962c-.652.347-1.305.7-1.956,1.036a193.524,193.524,0,0,1-19.177,8.7l47.817,12.152-.386.5a76.731,76.731,0,0,0,17.55-8.188q3.221-2.053,6.319-4.243Z" transform="translate(-406.348 -357.254)"/>
    <path id="Path_292" data-name="Path 292" class="cls-2" d="M941.831,557.294c8.6-7.252,16.413-14.475,23.2-21.11l4.508-49.02.58-.24c-8.217-1.945-17.975-1.769-28.6.541Z" transform="translate(-472.635 -258.58)"/>
    <path id="Path_293" data-name="Path 293" class="cls-2" d="M762.206,646.946l5.139-70.9c-26,32.951-43.524,76.577-44.628,79.36C736.009,654.892,749.319,651.749,762.206,646.946Z" transform="translate(-368.522 -301.623)"/>
    <path id="Path_294" data-name="Path 294" class="cls-2" d="M840.581,605.462l.047.009A262.88,262.88,0,0,0,864.8,590.754l-3.322-79.287q-5.023,2.69-10.091,5.914a94.2,94.2,0,0,0-13.482,10.6Z" transform="translate(-423.331 -270.894)"/>
    <path id="Path_295" data-name="Path 295" class="cls-2" d="M749.146,390.761,738.213,417.63c1.993,9.395,3.93,19.987,5.461,31.262l19.4-39.73.308.484a86.278,86.278,0,0,0-14.56-19.331Z" transform="translate(-375.896 -213.247)"/>
    <path id="Path_296" data-name="Path 296" class="cls-2" d="M728.488,404.874l10.59-26.027c-6.033-5.769-12.61-9.805-19.492-11.62-.358-.094-.715-.177-1.071-.259C719.328,369.449,723.992,384.048,728.488,404.874Z" transform="translate(-366.523 -202.138)"/>
    <path id="Path_297" data-name="Path 297" class="cls-2" d="M788.542,539.888l.236.6q-.332-6.109-1.1-12.091l-33.485,41.135-.119-.27q-.138,3.665-.383,7.23Z" transform="translate(-383.258 -278.95)"/>
    <path id="Path_298" data-name="Path 298" class="cls-2" d="M780.593,457.326l.274.552A135.634,135.634,0,0,0,768.846,428.2l-19.767,40.487q2.081,15.861,2.706,30.6Z" transform="translate(-381.066 -231.276)"/>
    <path id="Path_299" data-name="Path 299" class="cls-2" d="M629.03,432.012a113.249,113.249,0,0,0-5.36,22.187l67.293,40.076c-.533-8.515-1.381-16.665-2.379-24.2l-59.631-37.427Z" transform="translate(-321.393 -233.087)"/>
    <path id="Path_300" data-name="Path 300" class="cls-2" d="M621.825,483.734l.067-.643,68.579,39.541q-.12-3.137-.3-6.219L622.63,476.188l.071-.642Q622.152,479.541,621.825,483.734Z" transform="translate(-320.515 -253.802)"/>
    <path id="Path_301" data-name="Path 301" class="cls-2" d="M787.65,506.928l.254.579a161.965,161.965,0,0,0-4.326-21.4l-29.2,42.532q.361,9.83.063,19.082Z" transform="translate(-383.588 -258.827)"/>
    <path id="Path_302" data-name="Path 302" class="cls-2" d="M735.014,640.5a132.1,132.1,0,0,1-12.919,36.254c7.954-6.667,39.545-34.918,49.124-70.461Z" transform="translate(-368.226 -316.014)"/>
    <path id="Path_303" data-name="Path 303" class="cls-2" d="M624.847,550.225a156.669,156.669,0,0,0,5.62,20.208l.113-.7,57.555,42.607a194.8,194.8,0,0,0,3.21-23.124Z" transform="translate(-321.953 -289.336)"/>
    <path id="Path_304" data-name="Path 304" class="cls-2" d="M701.513,404.326c-4.871-22.531-9.929-37.69-10-37.907l.327-.275c-10.577-2.267-20.353,1.109-28.442,8.808Z" transform="translate(-340.296 -201.415)"/>
    <path id="Path_305" data-name="Path 305" class="cls-2" d="M750.624,590.034c-.056.736-.109,1.476-.172,2.206a193.522,193.522,0,0,1-2.914,20.857L783.4,579.215l.216.594A76.723,76.723,0,0,0,786.1,560.6q-.01-3.82-.2-7.609Z" transform="translate(-380.333 -290.654)"/>
    <path id="Path_306" data-name="Path 306" class="cls-2" d="M693.432,445.879c-1.522-11.146-3.44-21.612-5.411-30.9L649.03,384.933l.107-.618c-6.041,5.9-11.117,14.235-14.851,24.443Z" transform="translate(-326.445 -210.392)"/>
    <path id="Path_307" data-name="Path 307" class="cls-2" d="M693.246,632.65l-57.133-42.3c13.915,39.6,41.381,77.756,43.14,80.178C685.934,659.031,690.4,646.106,693.246,632.65Z" transform="translate(-327.314 -308.431)"/>
    <path id="Path_308" data-name="Path 308" class="cls-2" d="M689.561,560.387l.033-.035a262.888,262.888,0,0,0,.509-28.294l-68.748-39.638q-.417,5.683-.407,11.69a94.2,94.2,0,0,0,1.735,17.061Z" transform="translate(-320.098 -261.831)"/>
    <ellipse id="Ellipse_61" data-name="Ellipse 61" class="cls-4" cx="289.87" cy="16.774" rx="289.87" ry="16.774" transform="translate(0 383.142)"/>
    <path id="Path_309" data-name="Path 309" class="cls-5" d="M609.1,738.66c0,32.6-45.441,22.517-101.08,22.517s-100.4,10.084-100.4-22.517,45.435-39.691,101.074-39.691S609.1,706.06,609.1,738.66Z" transform="translate(-218.59 -360.112)"/>
    <path id="Path_310" data-name="Path 310" class="cls-4" d="M609.1,723.347c0,32.6-45.441,22.517-101.08,22.517s-100.4,10.084-100.4-22.517,45.435-39.691,101.074-39.691S609.1,690.746,609.1,723.347Z" transform="translate(-218.59 -352.826)"/>
    <path id="Path_311" data-name="Path 311" class="cls-6" d="M812.974,492.18s0,54.718,2.924,66.832,13.366,55.971,13.366,55.971l14.2-2.924s-2.506-58.06-5.012-66.414,2.924-42.605,10.025-50.124-3.342-12.113-3.342-12.113Z" transform="translate(-411.468 -257.543)"/>
    <path id="Path_312" data-name="Path 312" class="cls-5" d="M812.974,492.18s0,54.718,2.924,66.832,13.366,55.971,13.366,55.971l14.2-2.924s-2.506-58.06-5.012-66.414,2.924-42.605,10.025-50.124-3.342-12.113-3.342-12.113Z" transform="translate(-411.468 -257.543)"/>
    <path id="Path_313" data-name="Path 313" class="cls-6" d="M835.211,714.5s-18.8,7.519-20.049,7.519-2.089,21.72-2.089,21.72,1.253,12.949-19.214,17.126,16.29,13.366,22.973,8.772a55.564,55.564,0,0,0,9.607-7.936l2.506-4.177-.835,7.1,2.924.418,6.683-13.366s1.671-10.025-.418-12.531S835.211,714.5,835.211,714.5Z" transform="translate(-399.455 -367.502)"/>
    <path id="Path_314" data-name="Path 314" class="cls-7" d="M651.225,512.144l2.924,16.29,13.784-1.253-2.506-11.7Z" transform="translate(-309.868 -243.673)"/>
    <path id="Path_315" data-name="Path 315" class="cls-6" d="M755.634,418.419l-2.506,4.177s-72.262-10.025-72.262,16.708-3.342,42.605-4.177,43.858,21.72,14.619,26.733,13.784a17.417,17.417,0,0,0,2.924-10.442c-.418-5.848,3.341-27.568,0-28.821,0,0,4.177-1.671,3.759-4.177,0,0,58.9,8.354,66.414,6.683s12.531-7.1,13.784-10.442,3.937-16.376,3.937-16.376l-.6-22.052-6.683-7.936-10.025-1.253-15.455,9.607Z" transform="translate(-346.61 -218.868)"/>
    <path id="Path_316" data-name="Path 316" class="cls-7" d="M910.432,508.909s-5.848,13.366.835,13.366,9.189-11.7,9.189-11.7Z" transform="translate(-456.715 -269.677)"/>
    <path id="Path_317" data-name="Path 317" class="cls-8" d="M810.588,225.406,808.5,222.9s-23.391-52.63-14.2-66.832,49.288-16.29,50.541-15.455,5.012,3.759,4.595,4.595-8.772,2.924-5.848,7.936c0,0-4.177,1.253-5.012-.418s-3.342-2.089-4.177-.418-14.2,5.43-14.2,6.683-2.088,7.519-4.177,8.354.418,13.366,4.595,16.708,7.1,12.531,7.1,12.531l-2.089,18.8Z" transform="translate(-401.564 -94.358)"/>
    <path id="Path_318" data-name="Path 318" class="cls-6" d="M833.339,166.448a15.06,15.06,0,0,0-6.49,5.456c-3.084,5.239-1.114,12.406-3.025,18.3-.815,2.513-2.3,4.672-3.523,6.969a13.118,13.118,0,0,0-1.9,7.57c.315,2.6,1.843,4.8,2.564,7.294,1.242,4.292,0,8.946-1.405,13.177q-1.152,3.475-2.45,6.886c-.5,1.319-1.1,2.733-2.257,3.369l9.885.811c2.873.236,6.048.375,8.306-1.619a9.585,9.585,0,0,0,2.163-3.092c2.231-4.66,2.592-10.154,2.335-15.428s-1.081-10.515-1.036-15.8a16.056,16.056,0,0,1,.693-5.123,28.912,28.912,0,0,1,1.857-3.758c2.253-4.344,3.184-9.359,4.082-14.276.616-3.372,1.6-8.256-.163-11.424S835.715,165.238,833.339,166.448Z" transform="translate(-412.361 -105.687)"/>
    <circle id="Ellipse_62" data-name="Ellipse 62" class="cls-7" cx="17.126" cy="17.126" r="17.126" transform="translate(413.619 63.381)"/>
    <path id="Path_319" data-name="Path 319" class="cls-7" d="M856,229.82s2.715,10.651,1.044,16.081,22.765-7.31,22.765-7.31-7.519-10.025-7.519-13.366Z" transform="translate(-431.943 -134.693)"/>
    <path id="Path_320" data-name="Path 320" class="cls-8" d="M867.607,253.314s-5.43-4.177-5.43-6.265-3.759-6.683-3.759-6.683-17.961,9.189-18.8,9.189-1.253-5.43-1.253-5.43l-19.214,26.315s-6.266,15.037-4.177,26.733,5.43,23.809,3.759,34.669.418,14.619,2.924,13.366,0-5.43,5.43-5.012,23.809-5.43,25.062-7.936,6.266,5.43,6.683,10.025-.835,17.126,0,16.708,2.089-7.519,2.506-10.86,1.671-14.2,0-15.873-.418-4.177.835-5.012,21.72-52.63,21.72-52.63-2.088-10.86-9.189-14.619S867.607,253.314,867.607,253.314Z" transform="translate(-412.219 -141.898)"/>
    <path id="Path_321" data-name="Path 321" class="cls-8" d="M920.068,292.161l6.683,7.1v37.593s8.772,45.111,3.342,47.618-7.936,1.671-7.936,1.671,1.253,22.973-2.506,22.973-9.607-1.671-12.949-.835c0,0,.835-8.354,3.342-12.113s2.506-10.442,2.506-10.442-3.759,0-3.759-5.43-.418-8.772-.835-10.025-3.342-23.391-3.342-23.391Z" transform="translate(-455.072 -166.544)"/>
    <path id="Path_322" data-name="Path 322" class="cls-6" d="M856.195,162.358c2.891-1.838,6.725-.447,10.083-1.124,3.65-.736,6.693-3.92,10.412-3.739,3.094.151,5.537,2.59,7.54,4.953a34.938,34.938,0,0,1,4.8,6.88,41.91,41.91,0,0,1,2.855,8.757l2.47,10.021a50.531,50.531,0,0,0,3.205,9.973,16.96,16.96,0,0,0,6.861,7.717,20.185,20.185,0,0,1-11.541.037,23.67,23.67,0,0,0,6.948,9.716c-2.786.85-5.788-.007-8.695.178a12.34,12.34,0,0,0-10,6.554c-1.518,2.96-1.752,6.391-2.658,9.592a23.924,23.924,0,0,1-22.055,16.917c2.784-4.013,5.707-8.671,4.628-13.435-.652-2.879-2.705-5.3-3.314-8.185-.651-3.088.425-6.237,1.157-9.306s1.034-6.594-.868-9.111c-2.017-2.669-6.066-3.55-7.367-6.632a9.458,9.458,0,0,1-.513-3.559l-.083-5.493a11.622,11.622,0,0,1,.29-3.43,12.247,12.247,0,0,1,2.354-3.916,20.89,20.89,0,0,0,4.215-7.576c.841-3.435-.464-5.566-2.137-8.346C853.34,167.4,853.684,163.954,856.195,162.358Z" transform="translate(-429.106 -102.463)"/>
    <path id="Path_323" data-name="Path 323" class="cls-7" d="M890.2,146.335s19.214,16.708,14.2,22.556-12.949-10.86-12.949-10.86l-8.354-6.265Z" transform="translate(-444.835 -97.156)"/>
    <path id="Path_324" data-name="Path 324" class="cls-6" d="M695.127,574.251s-22.138,5.43-24.644,10.025c0,0-2.924,14.2-2.924,20.05s-1.253,16.708-12.949,18.8-20.049,5.848-4.177,8.772,20.467,3.759,25.062-2.506,7.1-7.936,7.1-7.936l3.342,8.354h2.088l7.936-17.126s.835-8.354-1.253-13.366S695.127,574.251,695.127,574.251Z" transform="translate(-329.961 -300.768)"/>
    <path id="Path_325" data-name="Path 325" class="cls-8" d="M890.411,145.712s-.639,6.683-9.718,7.936l-1.978-6.265,6.266-5.43Z" transform="translate(-442.75 -95.071)"/>
    <circle id="Ellipse_63" data-name="Ellipse 63" class="cls-9" cx="45.079" cy="45.079" r="45.079" transform="translate(179.533 217.34)"/>
    <path id="Path_326" data-name="Path 326" class="cls-9" d="M344.184,248.016h0a35.341,35.341,0,0,1-43.526-19.13L251.794,119.148a47.319,47.319,0,0,1,28.177-64.11h0A47.32,47.32,0,0,1,341.2,89.567l26.231,117.226a35.341,35.341,0,0,1-23.247,41.223Z" transform="translate(-142.499 -52.545)"/>
    <circle id="Ellipse_64" data-name="Ellipse 64" class="cls-10" cx="45.079" cy="45.079" r="45.079" transform="translate(179.533 217.34)"/>
    <path id="Path_327" data-name="Path 327" class="cls-10" d="M344.184,248.016h0a35.341,35.341,0,0,1-43.526-19.13L251.794,119.148a47.319,47.319,0,0,1,28.177-64.11h0A47.32,47.32,0,0,1,341.2,89.567l26.231,117.226a35.341,35.341,0,0,1-23.247,41.223Z" transform="translate(-142.499 -52.545)"/>
    <circle id="Ellipse_65" data-name="Ellipse 65" class="cls-2" cx="36.168" cy="36.168" r="36.168" transform="translate(186.777 221.281)"/>
    <path id="Path_328" data-name="Path 328" class="cls-2" d="M343.212,237.973h0a32.426,32.426,0,0,1-39.936-17.552L258.442,119.733A43.417,43.417,0,0,1,284.3,60.91h0a43.417,43.417,0,0,1,56.179,31.681L364.542,200.15a32.426,32.426,0,0,1-21.33,37.823Z" transform="translate(-145.823 -55.436)"/>
  </g>
</svg>
