<svg width="39" height="32" viewBox="0 0 39 32" fill="none" xmlns="http://www.w3.org/2000/svg">
<path d="M10.496 13.024C9.792 12.1493 8.864 11.712 7.712 11.712C7.30667 11.712 6.912 11.808 6.528 12C6.144 12.192 5.952 12.5227 5.952 12.992C5.952 13.376 6.144 13.664 6.528 13.856C6.93333 14.0267 7.43467 14.1867 8.032 14.336C8.65067 14.464 9.30133 14.6133 9.984 14.784C10.688 14.9333 11.3387 15.1787 11.936 15.52C12.5547 15.8613 13.056 16.3307 13.44 16.928C13.8453 17.504 14.048 18.2827 14.048 19.264C14.048 20.2667 13.824 21.0987 13.376 21.76C12.9493 22.4 12.3947 22.9227 11.712 23.328C11.0293 23.712 10.2613 23.9787 9.408 24.128C8.55467 24.2987 7.712 24.384 6.88 24.384C5.792 24.384 4.69333 24.2347 3.584 23.936C2.47467 23.616 1.536 23.0613 0.768 22.272L3.68 19.04C4.128 19.5947 4.61867 20.0213 5.152 20.32C5.70667 20.5973 6.34667 20.736 7.072 20.736C7.62667 20.736 8.128 20.6613 8.576 20.512C9.024 20.3413 9.248 20.0427 9.248 19.616C9.248 19.2107 9.04533 18.912 8.64 18.72C8.256 18.5067 7.75467 18.336 7.136 18.208C6.53867 18.0587 5.888 17.9093 5.184 17.76C4.50133 17.5893 3.85067 17.344 3.232 17.024C2.63467 16.704 2.13333 16.256 1.728 15.68C1.344 15.0827 1.152 14.2933 1.152 13.312C1.152 12.3947 1.33333 11.6053 1.696 10.944C2.08 10.2827 2.57067 9.73867 3.168 9.312C3.78667 8.88533 4.49067 8.576 5.28 8.384C6.06933 8.17067 6.86933 8.064 7.68 8.064C8.704 8.064 9.73867 8.21333 10.784 8.512C11.8293 8.81067 12.7147 9.344 13.44 10.112L10.496 13.024ZM16.5725 8.448H21.3725V24H16.5725V8.448ZM16.1885 3.552C16.1885 2.784 16.4552 2.13333 16.9885 1.6C17.5432 1.04533 18.2045 0.768 18.9725 0.768C19.7405 0.768 20.3912 1.04533 20.9245 1.6C21.4792 2.13333 21.7565 2.784 21.7565 3.552C21.7565 4.32 21.4792 4.98133 20.9245 5.536C20.3912 6.06933 19.7405 6.336 18.9725 6.336C18.2045 6.336 17.5432 6.06933 16.9885 5.536C16.4552 4.98133 16.1885 4.32 16.1885 3.552ZM29.685 25.152C29.685 26.1547 29.589 27.0507 29.397 27.84C29.205 28.6507 28.885 29.3333 28.437 29.888C27.989 30.464 27.3917 30.9013 26.645 31.2C25.9197 31.52 25.013 31.68 23.925 31.68C23.5623 31.68 23.189 31.6587 22.805 31.616C22.421 31.5947 22.0477 31.5307 21.685 31.424L21.941 27.168C22.325 27.36 22.741 27.456 23.189 27.456C23.5943 27.456 23.9143 27.3493 24.149 27.136C24.3837 26.9227 24.5543 26.656 24.661 26.336C24.7677 26.016 24.8317 25.6747 24.853 25.312C24.8743 24.9493 24.885 24.6187 24.885 24.32V8.448H29.685V25.152ZM24.501 3.552C24.501 2.784 24.7677 2.13333 25.301 1.6C25.8557 1.04533 26.517 0.768 27.285 0.768C28.053 0.768 28.7037 1.04533 29.237 1.6C29.7917 2.13333 30.069 2.784 30.069 3.552C30.069 4.32 29.7917 4.98133 29.237 5.536C28.7037 6.06933 28.053 6.336 27.285 6.336C26.517 6.336 25.8557 6.06933 25.301 5.536C24.7677 4.98133 24.501 4.32 24.501 3.552ZM33.1975 8.448H37.9975V24H33.1975V8.448ZM32.8135 3.552C32.8135 2.784 33.0802 2.13333 33.6135 1.6C34.1682 1.04533 34.8295 0.768 35.5975 0.768C36.3655 0.768 37.0162 1.04533 37.5495 1.6C38.1042 2.13333 38.3815 2.784 38.3815 3.552C38.3815 4.32 38.1042 4.98133 37.5495 5.536C37.0162 6.06933 36.3655 6.336 35.5975 6.336C34.8295 6.336 34.1682 6.06933 33.6135 5.536C33.0802 4.98133 32.8135 4.32 32.8135 3.552Z" fill="white"/>
</svg>
