<svg id="user_2_" data-name="user (2)" xmlns="http://www.w3.org/2000/svg" width="170" height="170" viewBox="0 0 170 170">
  <g id="Group_123" data-name="Group 123" transform="translate(109.392 163.944)">
    <path id="Path_359" data-name="Path 359" d="M301.249,451.92c-.885.3-1.776.589-2.673.856C299.476,452.506,300.364,452.216,301.249,451.92Z" transform="translate(-298.576 -450.29)" fill="#f9ede0"/>
    <path id="Path_360" data-name="Path 360" d="M313,447.472c-.956.381-1.911.756-2.884,1.1C311.093,448.225,312.052,447.853,313,447.472Z" transform="translate(-305.891 -447.472)" fill="#f9ede0"/>
  </g>
  <circle id="Ellipse_73" data-name="Ellipse 73" cx="85" cy="85" r="85" fill="#efece8"/>
  <g id="Group_124" data-name="Group 124" transform="translate(48.236 161.655)">
    <path id="Path_361" data-name="Path 361" d="M289.359,455.584q-1.3.361-2.623.683Q288.059,455.946,289.359,455.584Z" transform="translate(-229.918 -450.323)" fill="#f9ede0"/>
    <path id="Path_362" data-name="Path 362" d="M209.839,462.872c-1.038-.073-2.072-.152-3.1-.264C207.77,462.719,208.8,462.8,209.839,462.872Z" transform="translate(-179.233 -454.773)" fill="#f9ede0"/>
    <path id="Path_363" data-name="Path 363" d="M172.719,456.259q-1.319-.321-2.623-.683Q171.4,455.941,172.719,456.259Z" transform="translate(-156.012 -450.318)" fill="#f9ede0"/>
    <path id="Path_364" data-name="Path 364" d="M197.144,461.316c-.929-.12-1.855-.246-2.776-.4C195.285,461.07,196.215,461.193,197.144,461.316Z" transform="translate(-171.392 -453.704)" fill="#f9ede0"/>
    <path id="Path_365" data-name="Path 365" d="M223.94,463.772c-1.565,0-3.116-.05-4.66-.132C220.825,463.722,222.375,463.772,223.94,463.772Z" transform="translate(-187.176 -455.427)" fill="#f9ede0"/>
    <path id="Path_366" data-name="Path 366" d="M184.818,459.109c-.891-.164-1.779-.34-2.658-.533C183.039,458.769,183.927,458.945,184.818,459.109Z" transform="translate(-163.656 -452.219)" fill="#f9ede0"/>
    <path id="Path_367" data-name="Path 367" d="M135.836,443.1q-1.983-.831-3.916-1.75Q133.854,442.275,135.836,443.1Z" transform="translate(-131.823 -441.305)" fill="#f9ede0"/>
    <path id="Path_368" data-name="Path 368" d="M148.884,448.574c-.97-.349-1.929-.721-2.884-1.1C146.956,447.853,147.914,448.225,148.884,448.574Z" transform="translate(-140.745 -445.183)" fill="#f9ede0"/>
    <path id="Path_369" data-name="Path 369" d="M236.66,463.64c-1.545.082-3.1.132-4.66.132C233.565,463.772,235.116,463.722,236.66,463.64Z" transform="translate(-195.236 -455.427)" fill="#f9ede0"/>
    <path id="Path_370" data-name="Path 370" d="M251.9,462.608c-1.026.111-2.061.191-3.1.264C249.843,462.8,250.877,462.719,251.9,462.608Z" transform="translate(-205.886 -454.773)" fill="#f9ede0"/>
    <path id="Path_371" data-name="Path 371" d="M277.25,458.576c-.882.193-1.767.369-2.658.533C275.48,458.945,276.368,458.769,277.25,458.576Z" transform="translate(-222.223 -452.219)" fill="#f9ede0"/>
    <path id="Path_372" data-name="Path 372" d="M264.84,460.912c-.92.149-1.847.276-2.776.4C262.99,461.188,263.919,461.064,264.84,460.912Z" transform="translate(-214.285 -453.699)" fill="#f9ede0"/>
    <path id="Path_373" data-name="Path 373" d="M325.29,441.368q-1.921.919-3.9,1.744C322.708,442.561,324.009,441.984,325.29,441.368Z" transform="translate(-251.877 -441.315)" fill="#f9ede0"/>
    <path id="Path_374" data-name="Path 374" d="M160.8,452.776c-.9-.27-1.788-.56-2.673-.856C159.013,452.216,159.9,452.506,160.8,452.776Z" transform="translate(-148.429 -448.001)" fill="#f9ede0"/>
    <path id="Path_375" data-name="Path 375" d="M319.243,446.128c-.41.173-.829.325-1.243.489C318.41,446.453,318.829,446.3,319.243,446.128Z" transform="translate(-249.727 -444.331)" fill="#f9ede0"/>
    <path id="Path_376" data-name="Path 376" d="M332.149,441.224l-.117.053C332.07,441.259,332.111,441.245,332.149,441.224Z" transform="translate(-258.618 -441.224)" fill="#f9ede0"/>
    <path id="Path_377" data-name="Path 377" d="M179.05,457.861q-.9-.2-1.794-.413Q178.149,457.663,179.05,457.861Z" transform="translate(-160.549 -451.504)" fill="#f9ede0"/>
    <path id="Path_378" data-name="Path 378" d="M191.222,460.354c-.607-.1-1.211-.211-1.814-.322C190.015,460.143,190.616,460.258,191.222,460.354Z" transform="translate(-168.249 -453.141)" fill="#f9ede0"/>
    <path id="Path_379" data-name="Path 379" d="M216.69,463.442c-.5-.026-1-.079-1.5-.114C215.693,463.363,216.189,463.416,216.69,463.442Z" transform="translate(-184.586 -455.23)" fill="#f9ede0"/>
    <path id="Path_380" data-name="Path 380" d="M203.7,462.223c-.589-.064-1.172-.147-1.759-.223C202.53,462.076,203.113,462.158,203.7,462.223Z" transform="translate(-176.192 -454.388)" fill="#f9ede0"/>
    <path id="Path_381" data-name="Path 381" d="M131.756,441.276l-.1-.044Z" transform="translate(-131.656 -441.229)" fill="#f9ede0"/>
    <path id="Path_382" data-name="Path 382" d="M246.218,463.328c-.5.035-1,.088-1.5.114C245.221,463.416,245.717,463.363,246.218,463.328Z" transform="translate(-203.296 -455.23)" fill="#f9ede0"/>
    <path id="Path_383" data-name="Path 383" d="M295.611,454.256c-.569.17-1.14.328-1.715.487C294.47,454.584,295.042,454.426,295.611,454.256Z" transform="translate(-234.455 -449.481)" fill="#f9ede0"/>
    <path id="Path_384" data-name="Path 384" d="M307.436,450.48c-.516.185-1.038.352-1.556.528C306.4,450.832,306.921,450.665,307.436,450.48Z" transform="translate(-242.048 -447.089)" fill="#f9ede0"/>
    <path id="Path_385" data-name="Path 385" d="M143.859,446.625c-.413-.164-.832-.319-1.243-.489C143.026,446.306,143.445,446.458,143.859,446.625Z" transform="translate(-138.6 -444.336)" fill="#f9ede0"/>
    <path id="Path_386" data-name="Path 386" d="M155.436,451.008c-.519-.176-1.043-.343-1.556-.528C154.393,450.665,154.915,450.832,155.436,451.008Z" transform="translate(-145.738 -447.089)" fill="#f9ede0"/>
    <path id="Path_387" data-name="Path 387" d="M259.015,462c-.586.076-1.169.161-1.759.223C257.845,462.158,258.428,462.076,259.015,462Z" transform="translate(-211.239 -454.388)" fill="#f9ede0"/>
    <path id="Path_388" data-name="Path 388" d="M283.642,457.44q-.893.215-1.794.413Q282.749,457.66,283.642,457.44Z" transform="translate(-226.821 -451.499)" fill="#f9ede0"/>
    <path id="Path_389" data-name="Path 389" d="M271.446,460.032c-.6.111-1.2.226-1.814.322C270.242,460.258,270.843,460.143,271.446,460.032Z" transform="translate(-219.08 -453.141)" fill="#f9ede0"/>
    <path id="Path_390" data-name="Path 390" d="M167.139,454.743c-.572-.158-1.146-.317-1.715-.487C165.993,454.426,166.564,454.584,167.139,454.743Z" transform="translate(-153.052 -449.481)" fill="#f9ede0"/>
  </g>
  <path id="Path_391" data-name="Path 391" d="M138.256,136.465a35.172,35.172,0,1,0-38.912,0,.01.01,0,0,0,.006,0,0,0,0,0,1,0,0,67.493,67.493,0,0,0-46,48.377l0,0c.926,1.117,1.888,2.207,2.869,3.277.237.261.487.51.73.765.756.8,1.521,1.594,2.307,2.368.325.319.657.627.988.941.727.692,1.463,1.375,2.213,2.04.372.328.75.654,1.126.976q1.1.945,2.239,1.852c.4.319.8.633,1.2.947q1.152.888,2.336,1.729c.407.29.809.586,1.222.871.832.574,1.679,1.126,2.532,1.671.384.243.759.5,1.146.736.985.607,1.987,1.187,3,1.756.267.149.528.311.8.457q1.961,1.073,3.983,2.049l.1.044q1.93.923,3.916,1.75c.41.173.829.325,1.243.489.956.381,1.911.756,2.884,1.1.516.185,1.038.352,1.556.528.885.3,1.776.589,2.673.856.569.17,1.14.328,1.715.487q1.3.361,2.623.683.893.215,1.794.413c.882.193,1.767.369,2.658.533.6.111,1.2.226,1.814.322.92.149,1.847.276,2.776.4.586.076,1.169.161,1.759.223,1.026.111,2.061.191,3.1.264.5.035,1,.088,1.5.114,1.545.088,3.1.138,4.66.138s3.116-.05,4.66-.132c.5-.026,1-.079,1.5-.114,1.038-.073,2.072-.152,3.1-.264.589-.064,1.172-.147,1.759-.223.929-.12,1.855-.246,2.776-.4.607-.1,1.21-.211,1.814-.322.891-.164,1.779-.34,2.658-.533q.9-.2,1.794-.413,1.319-.321,2.623-.683c.572-.158,1.146-.317,1.715-.487.9-.27,1.788-.56,2.673-.856.519-.176,1.043-.343,1.556-.528.97-.349,1.929-.721,2.884-1.1.413-.164.832-.319,1.243-.489,1.316-.551,2.617-1.128,3.9-1.744l.117-.053q2.022-.972,3.983-2.049c.27-.147.531-.308.8-.457,1.011-.569,2.014-1.149,3-1.756.387-.237.765-.49,1.146-.736.853-.545,1.7-1.1,2.532-1.671.41-.284.815-.577,1.222-.871q1.183-.849,2.336-1.729c.4-.311.8-.627,1.2-.947q1.134-.906,2.239-1.852c.378-.322.756-.648,1.126-.976.75-.665,1.486-1.348,2.213-2.04.328-.314.662-.624.988-.941q1.178-1.161,2.307-2.368c.24-.258.489-.507.73-.765.982-1.07,1.943-2.16,2.869-3.277l0,0A67.483,67.483,0,0,0,138.256,136.465Z" transform="translate(-33.8 -45.621)" fill="#c6c3bd"/>
</svg>
